<mxfile host="app.diagrams.net" modified="2024-03-12T02:37:09.973Z" agent="Mozilla/5.0 (Windows NT 10.0; Win64; x64) AppleWebKit/537.36 (KHTML, like Gecko) Chrome/122.0.0.0 Safari/537.36" etag="LbJdm9Ogs_XGijpUngJU" version="24.0.5" type="github">
  <diagram name="第 1 页" id="ypf2-rMwxjLenNl--2VZ">
    <mxGraphModel dx="1434" dy="746" grid="0" gridSize="10" guides="1" tooltips="1" connect="1" arrows="1" fold="1" page="1" pageScale="1" pageWidth="1200" pageHeight="1600" math="0" shadow="0">
      <root>
        <mxCell id="0" />
        <mxCell id="1" parent="0" />
        <mxCell id="A4Z1KR2vAiBidAgtDhCJ-12" value="" style="shape=image;verticalLabelPosition=bottom;labelBackgroundColor=default;verticalAlign=top;aspect=fixed;imageAspect=0;image=data:image/png,iVBORw0KGgoAAAANSUhEUgAAAegAAAFWCAYAAACikA4JAAAAAXNSR0IArs4c6QAAAARnQU1BAACxjwv8YQUAAAAJcEhZcwAADsMAAA7DAcdvqGQAAHT7SURBVHhe7b0LbBVHuqj7Q5RhEhGDIJigeF1swtGgLYIVzkDAukY7OBzIsRNkFIfLY0hm2OExkDA85lyNso0smGh0zjggHhGIGbIzDI+TGEEIixvmEGe2YslOQkKyDmiLkYhtneUEbMMICApDorBu/fXorq7uXt1reS27bf+fVHa9uqq6ulf/9f9V3TUkxYC+5qO9sH3mJShN1sPsIhkHCTg65BW4eXg//GLRWBlHEARBEIODaAhoRteRTXBo8UUZEowg4UwQBEEMUiIjoAmCIAiCsBkq/xMEQRAEESFIQBMEQRBEBCEBTRAEQRARhAQ0QRAEQUQQEtAEQRAEEUFIQOeLz3dDcXExc7vhnIwiCKIfY/2mV8GJyzKOIPLIABLQ+GGTKtgu3RtHOmV8X3AOdlfXw6bj7dDevhamytjBRPe7q+TDzO+B1g0n1qh05tacYDFOzu3U0gfrQOfyCVjFzn/Vu6x3dL+E97NH32WGcS2MOgKR7VLH7v5cxvcq8hx4X+j+HPLYWvZ7boezOwHW/TbHZROEBwNIQJfCs6k4rE/th9IaGeXBha1MgG9NyFCeuJyEC7AJyh6T4Qzp+UOXDRD67EHJYA/s2r88BWfZw8x6oM10CthzO6fBup8c4+nt7WdhB6yDaTvtHNgHC/62wyrj2IZ6WJDrB24/YnJsjPQ5/T0H7xX9Wgi395kM6hg3H/by446xuz5/hPpd/CQGVst1fw4ZM+0pmHcqCUkZJoh8wQV0XV1doKutreUHECG4koTT0jsowQf26/Oth+OYZ1awB3c9NKsBAxPg+7bNgx01yrYwBub/C3u0b9snNe1z8NbLp2HTv9hlTK3ZwR6K6+Ctvhp09BXjYjBZeh3+XMEHk/q16K+MgdhPpNfhJ4j+CxfQNTU18NFHH/m6zz77DFatWsUP8AbNy5vgg45O+OA5ZWbGsEzm6GnMPXcKumSKgmu3Kp053UyNnwJ1HiPKC2vKVmWf2cwCm1/R6tnLHlA6ytyXL5Oq25yoNF1lFp7GhBMwYTTNymOYiK25MOkszVNozsXFC5g4BKiv9sqDGG3w1Ery1w/dZ9+D05VPQdk4GYF1/RFbfBqSV9i/z5tZ+50WiHMN6/ig50IyNzo07+udJ6x+2P256jtnXzvN7G7Tr7pmTmf0mbxeGZmNLabCWqadruV9ofudJPV2WNdTXkPHtWfw9uhtPA3rGtJf5R5PNxhmcM++MO9reR5hfxdTX2Za/MtioKH7CaLfgp/6RA4dOpSaO3eup4vH4zKXH1+kGqAytY25/Yev8JjOwxtT22riqU4eupJqrGHpW77gIeT8Fha20s38btzpokxVn41fvIDXq7XDTVfqnV+OT40fvyv1mYzJlK4TK1Pjd3gf/dkOVrZPmoIf/8t3WEu8+Cy1Sz/+63dSK8ePT+06J8MclscVp5Dnp5XB2+Sqr+f9oODno5Xj6B+r/aK+lSdYK87t0tojzgXjw/RdWESbRB/xcsevTL3ztdYGlcf3OjCwnfw4PezRXzzeLjeXqPOw+8XuL46rTc5z5Mj2OcuxMe8P83ra+Nx3rnvUaCNi9qUHgdej10j3+yKI3GHNQS9evBimTJkiQzazZs2CyspKGUqPvrlFYclEgIak0Hg7PoX2hiqYU1vK05DJP18NIxr+Chd0LdsM9wljYP7rOJ+WxeIuqQHUwtb0o/dtzT3QSpkWpZc9rgyeYpcntGZ5uRneO7UJjmllCPPxe9DsWMjVg37QwflopvnM27nQVQ7XjGYmYYWmFTrmV3l/7oNYiz0nOq84xv/nhModsFBpoxtWwPxxHqZRV7/YdCcvyONkxGNlTO+/AEkzv1xclNG8biaw8zhrXc+psHDnPDjdLmdIeZv06QW8/vPgqWlaW2T72o/jNMMCfg/b6xfOQTNOR/xrmimLALjFZMMxTfOXbfxLs63p/7Ge3SNb7b6MNMKSUdaEWny+LG0EYSwSW716tfQJCgoKAkzbTgpKtJ2nZqyC9alVYs6sIwk3IA5nLLMyc7E9LM6mcFE9LDkMkIj5mZ77AfJBt5WJaJdZUYKmN77gSZnpslj45DQ3ToN1p2RCGPj8uFY/upnCfJxz0KyJZbOHs0s4MUEwrX2FNgBIQlI/DzRl/jEGZ9v3yod2NyT/xlN6jTHP7JUL3FRfOR/GY2Ls7rbmzXHAsY/17GSIRUHI/C0p7yshDOubRMuFsNQGFTrWKmWWv1qeK5+jPq31AToxhRKWZDu7u6TgV46bqy3Etc/t4rd8IqZDmstzMIAliDQ4BHRJSQmsXLlShoAL51GjRslQDyiKwQhgGjRfZa07ff9nIaRV2pwtTKB7zFP3B8SD219L5vNjqLF4rF4OArXOBduYBsyPl2WEM3AIHorBPKb/2McrpwRhrmAPMSmcTWsCXwVrLkzSV75zrQ8ci8TEQ9zQ/HoBFNKqj7xXktvCa9rLADta+v6BzQWitoKZ9ze/H7uh+S+sjQELwsT1kZYAvjCNXasW837xngv3IlY8DwDvA+P4dmshYQximViB+poevqVBEGFxCGikuroaZsyYAXPnzoXZs2fL2B5S9FMormECN4PXmwonTpI+gcNkzriwdTkkGmQgA3i5m1vSaOf5Wxzlxnu1KRfwPqZV/vCtZA80Ge5+t9ZDgxYPPKU1OeAmcSZoAgcFPekHPJZpWQ7TqwZvAxNs1rukLP9vUZiXSeE2Fco24CI3u+5zO7E8fWGZQFkTeuOVMi5oNM41oVn2rCZ0fAY5PVokliF8hTwb3JRr/T5uPqxgg4t9a9i98hMf7VmDL8iz+hqvhX6tMkcMEBakuUZjoGzuPDj9cq1zMaRBut9FWNSCM/NaiPsI7zd53/Pfh9CUe+W6EYQHLgGNoOaciWk7mLEw++39UHpeXz3NnKYhmyu4Dy2eCHPeroRCmQ4zqqEUhbxM/2TifqZlyzTko73yWCG4byxeLsLGoKBw0a8d5fSuKV0JPdvxd31NIfbYWqat6WZFe7Xq1JePwSZtJSuaiY8xYeZkDMz/1x38oWjVZQlknFtmWvffnCbHbEztfliDBseKW70O2Qa0HvA0+R6uPi9uTAXwftJe3VJMLRdv3tb/MXftV5gruKe9PBmOaW3AuXt4eZojD7refP9cCC2tn2e+B08xbdfUbrGfTp867RTciLlymjmzr/m1+IlxLbWBm72S3fn2gCXY8LW7lh1wQX+rQE9nuKcTmDPvyTS/i7AI6wCwwcBb7oGnNvAliCgwBFeKST+RK/jcKy5+ovmp/INaDhMMHqb0/IKDrWnw3tyzjvl1FFZckEft2qMgrobotavXEddtHRseeg34QkG/b6KX8NSgiR7C5+3Cr3IlskcszDJMur2CsahNYk5BRAM2iOGfniWBAp+/xa078+aWZSecGeI9ftK2ifxDGnS+4BoLFx2kteQFqTnzBUy5XuAWErVKXQY5OO+erWaWa7T24Vx53l7z6hdIzZkJZ/xGftgFbg6s33Qf3nPEoIIENEEQBEFEEDJxEwRBEEQEIQFNEARBEBGEBDRBEARBRBAS0ARBEAQRQUhAEwRBEEQEIQFNEARBEBGEBLSG83Ojm+ADc+tL63Oiwr1xpJNH8+O8vjOO+SO14cdVuLy+FL5cfxxuOfzR4tou1q7HX4Nrhp8gCGIwMWAEdNeRTT0Shihkz2zWd9z6NcC/aeWhsJ0Zh1iLSo9DFRx3C/H+wIQJMFx6Hf4oUTYBhkmvw08QBDFIIA0aYcL3zOZJUJqU+1dzxsLsWrVZRwKOMuE84vB+eHYGj+AULlrFt8s0d96KLg/CjyZIr8MfLYaVlEuf008QBDGYiMaXxDpOwRuxPXBDBqFmNSyxdrJiwnHIKwBMc7WEI9dmgWm7q6CQac6HFl+UCToocO39plHD1vOhsP3ForHcz7VneBXW15bysAutPluA2/Cyjz/B2wzov/QzURYed2amXa7Uwi22qDo74YPnlkPiUaMNnvXKT1zm45OSidfgyzcnwNgXWqFzxQERV1YHY7dXa1p2AjoeXwZ3ZAhgGYz8eCOM5n40m1fADy80wj1vVsC3zTwShu1LQJHetViPKp/hSicIgiCioEEz4fRvAFWWaflViDXsgbic3w2icFE9P27JYabFomC3yjGF80TNfP0qFCxeLueQO6HrvMjnR1fbJenzhu9VLem6xAYBcr9p53FsoIHCWrUhuRpGbH4Fjn6EaUxb31Bl7FPN+mUbau3VnoOCvNFcB50opD9OwCMfH4BhLNwdvyoThXD+vraRpWF6AsbWtsF1Y474zgoU0iq9nIW1dC6c2+D+kyL9kZN18P2KUugIv1U4QRDEoCACAlo3JSOlMGkLwI1LV2S4p3TCheMXDUFXCrOYQL9x/NMcL+BKwMXzq6F0SxwucsGrUwrP6tpx0U+huAbgZpsciMyYCTHQjuv4FNobJkFxudDybabC2vZ2aM/bhgxMI7Y05lK4bynA3baveAgS7zPNeRkUVD0owozhVS/CMDgAtzUBO5QJcKURD59ewW6yNvhOdvS1Dw+w9DoYpy54YTUUsDrufEgSmiAIQicSc9B8gZe2OvrMZpmQE67A3xsACkqcgo5rvQ1JJqDHQuGjMtIHXUP2pCgGI7Csjg64+WgRTJ44yRK8IyY+xP8jzlXiyyHB2mUjBg3JM0JQdTX9FW5s+ZllBYgCt5JtHgu2HoZ7ygC+TyotOx1X4btWJvC3VsCXj+PqbOGuH5TJBEEQhEXfC+iP9sKhxUw8JZX5OQ5zmAadOx6CUbqmKuHm55oY19z5Ii+HedkABbCu3fqAQrVgTikUlj8BwLTzC2juluAgxLlKfD+Usnbp4HEjeDtQ62d98vNoTcwOj5UANLdq88/IV/BDM8C9MVur9kcsTEMNW5nILfcSTUITBEHo9LmAFvO0E6FQaYpMYDs1aEPA4oIyfaGVRGjEf4ULrteexsLk6klwY/FxWwCzMuKLL0JsgzCtFy76GTcvn3G8ptUJH2yV4aJKmM4GDcmZzneju47s1cJxSLCBxig8DzRfwx5IsPNQmjufm5YDAh4+8ntDg2bweuLwyXMs7VE/7RkXiRVD8ZoT0C1jeo3SJ7k5+6Y1J43vKS+DO2V1MDKkfB09axnToOvgcm7nFgiCIAYcfS6gCxf9mmmSTDgq0++2GMzBBV8WYgHVjcXLRXosCdNxgZVMtZiximneFyERUyZkW5jiQrI5TPBZdcT2QIG+Khznh1GjZUL1kMoz5PcAP7fnxifX4kI00MqvYiK5WgjRoiIowEw1T8BkLlTdZvPJtWLxmyofV3p7WQomz2Hn2sAGD0wTjx6lUHSyDkAzUV9vNVd5B1C6ER7ZVwLfPm2buNHRIjGCIAgn0XjNirDxfLWKIAiCGGxEYpEYoRAfRIm1kHAmCIIY7JAGHQW0D7XoH1AhCIIgBi8koAmCIAgigpCJmyAIgiAiCAlogiAIgoggJKAJgiAIIoKQgCYIgiCICEICmiAIgiAiCAlogiAIgogg/V5A8x2itnp8JxK/yOX4tnZfcxUury+FL9cfh1sOf7S4tgs/vSn2b9b9BEEQRO9CGnRvM2GC/d1q3R8l9C0lXdtLEgRBEL1BvxfQfKvIfoHYalGg+6PFsJJy6XP6CYIgiN4lMl8SQ1O1vs2k65OXfBMJbZvJmtWw5O1KgCOb4NDxJ2z/pZ/B+tpSkf/MTOFHzOO3vCrTOuGD55ZD4lEVlnhuWoFbPS6A+sodcPb1+TBGxuaExGvw5ZsTYOwLrdC54oCIKzN3ikpAx+PLtP2Yl8HIjzfCaO5Hs3kF/PBCI9zzZgV828wjYdi+BBTpG2NhPap8hiudIAiCiASR0KC5cD7PBG4qDuulcwvnS1CatNPXM4HM93LGfaAlfM/lzS1832exz7QiAUdRWKtjcbvKza/A0Y8wTWxnqY4TMKG9Lc4GCdW9u2lFcx10opD+OAGPfHwAhrFwt7X3shDO39c2sjRMT8DY2ja4bswR31mBQlqll7Owls6Fcxvcf1KkP3KyDr5fQVs9EgRBRJG+F9Adp+CTzZOgdJu997ITJSx/LfZe9iUBF5mQL90Sh4tc8OqUwrO6dlz0UyiuAbjZ1inCM2ZCDLTjOj6F9oZJUFxubloxFda2t0N7rrVnC6YRWxpzKdy3FOBu21c8BIn3mea8DAqqHhRhxvCqF2EYHIDbmoAdygS40oiHT69gF7gNvpMr5a59eICl18E41dGF1VDA6rjzIUlogiCIqBEBAZ2EGzARCn2F7xX4ewNAQYnPDk9FMRjRkISujg64+WgRTJ44yRK8IyY+xP8jfLX3EOWWQ4KVaVMKsw5PguQZIai6mv4KN7b8LGBA0LvcSrZ5LNh6GO4pA/g+qbTsdFyF71qZwN9aAV8+jquzhbt+UCYTBEEQkaLvBTQKWLjEBKwMu3gIRunarg8oVAvmlEJh+RMAxz+FC2julnQd2QRnNlfBHGXiTu2HUlamDh43gpu5O+HCcSayfx6tidnhsRKA5lZt/hn5Cn5oBrg3ZmvV/oiFaahhKxO55V6iSWiCIIioEQEBjebmi5DY4PfO8liYXD0Jbiz+PXzgK8TjkFgMMAo1XiwP9kBis61187npmphlQu868ntDg2YUVcL0LXH45DmW9qif9oyLxIqheM0J6JYxvUbpk9ycfdOak8b3lJfBnbI6GBlSvo6etYxp0HVwOTovhxMEQRA+RGCR2FiY/TbTaJlQPWSZoKvgjSO2xly4qB6WHAZIxDQztfoISVERFOD/midgMheqY6HwUfxvM7n2VYg12OXjSu85W2SixuQ5VXCj4SLEmCYePUqh6GQdgGaivt5qrvIOoHQjPLKvBL592jZxo6NFYgRBENEjMq9ZRQLPV6sIgiAIoveJgAYdFRJwdGYcYi0knAmCIIi+hzTojlPwRmwP3GBe18dRCIIgCKKPIAFNEARBEBGETNwEQRAEEUFIQBMEQRBEBCEBTRAEQRARhAQ0QRAEQUQQEtAEQRAEEUFIQBMEQRBEBBkEAjoBR9XnQV1ur7YHdM/gu2Vt7cE3M/F97CGb0nxvPCLgntLq86C638FVuLwePyO6No/f/ZZ1rD8Ot2RMxvi2v/e4FV/L29CmfWPdhWznl7vy1FCffri2y/4crMNl0uddx6GNHcPPT/cTBBHIIBDQpfCs2sUquRpGwCQoTapdreirYdlRDveMk16HX9LVBP+AOrh/Kfv/STYP4wR0sAd5334jPN9tEAOMbqgwthA1Ye1YcQCGlpXLcO8x+iVj1zPmRi5lCRMmhP/+u0TfcS3c7msEQZCJm8iMcRPsm0b3a9z6pBGgohzG4e5ZjU3Za7hpeRDGbWdCI5PNQkxw8xAmdIr6YG+UW/E6+OGFBJRUTZAx3tyK/wHuLD0AYypkRD4I2w9MA755sBzuX5hBhxVOgHul1+EnCCKQyAhobiLWzM/2blbCRH30IxlEcFMLzTyN+z1z8zKPl2Vkam7mJmatDWq3LItO+OA5LZ05R5sM1Pmky5MW1R5HO4w26Gn83E0Tuciv7wyGdL+7CoqLi2H35zIiEwqroeTj3TAO9+7U/RZX4RsmlLmWhAK8uRG+cZm5lQncdkJTFVrrl48v4/te31mh5dHMuw7Tq2lu5eZa07Qu61NlSFOrKsOpJQe3QZilX4NrPKTITOMeXrU7lEDs3go+AhHrw/NU7RXOrl+cc0fC2deO9qXtBzfX3qqDu2UV8IBxvb2vpaIUiizhr/sJgggEP/XZ15zfUpnaVhNPdcqwky9SDVCZamiRQaRlT2ob7Emdl8HOwxtZmJVhxXkcgyTjqf2wMdWYlGGLK6nGLXr94vj9h6/IsGzjli9kyI2env58fNDbxv1m+1kba5xtcNYj0vU2m/2k6DqxMjV+/PjUrnMyIpd0Hku1Tq9PXeWB7tTXv5qSaj3ZzUMCEXdpp39fYv8np09JJdNlYXxzck3q0q+Opb6RYYFHnbxNa1Jfuy5IunoyS/NuSxhEWc4+Elzdacfz8h19Jo67pJ0Xz2P0/SWtnc50nXTnqvDOg21Mfy0JgsiWvtegmab4yeZJULqtEhwD84yp0raJfAhG1QDcbHNqjv6Mhdm1ev2lMGkLwI1LV2RYsrklYFFZB9dYz5xfDUvezvJ8mpgmHNsDBS1xeHaGjEM6PoX2BnaOtbb6Mfnnq2FEw1/hAteax8Lk6klw4/inllZ94UwcYMtM1zz7mGf2Qnt7O6x9TEbkEDRv3136JIzmoQfhgYpyp5k78Sf4tnkZjHwpX2qUu07RphcNTb8nlMJ9S5l2/aFSFYXVYCirN2tzu0niNbh+cBkUVKWfrx22z7ZgDK96EYZBG3ynWQ+G1jZaGuvw6RUw1EgPCze1l9XBSK/LdvB9w5pAEEQuiICATsINmAiFRTKcLTUxTSAygft2PKOdqbiZXJmOmTuzWSZIJtfGYc6WOJzxMi8rNu+BRANAbEO2g42LkFjMhGrNapilC2eE95NWPzq5C5eicNHPIGYJ7ARcxIHPz3vTnigFVcnDMsyEQqwEoLmVm4uRW8k2gLIJAQujegYXVJZpXbRp2Kzc9sPohXUwVAkmXBTHBh1BwjQ8V+HymweY8N0oBzqZ0AQ/XJbenJGA61tZH77gnu/HhWQjlx6A68rE3ZNV9QRBOOh7AV0UgxFwCbr68vWij/bCocVML7JWd6MwlmkaKKRF+n6mQ+2BQ+Y895ZX+UrxmzOznXsWK8znPMrKNgcAvJ/QSmC3Ubh6mG0NblDzvwjtTZ3snFogueVnWlovwAUVwN2tFfac5IoDLOEA3JZdZQrs/IAarlxBLleUe2p+PaGwHH5cJs6LL4qrfT4LYeqD7Ed9/ruTCUhgGjX6feeKu1rhe69V9T2Ea8+wDO7z6UN7tXcj3M/6ujNfr4MRxCAjAgL6p1BcwzTHDR4aKccwV+PiqZlMy8whXW2X2F9Ni2cC29SgnYyFwkel16SoEn7RUgXJrIU0DgTkAEAX0ryfmAYdsPgNzd6w+PfwxrZLvtpzjxaJpYGbksvqYCx/WNsOX82xzMGlTzLtmWlcaR/iD8M9ZboJOXNQwwWmOV+TK8ozNz0HteFBGPfCMrjz5lro3lqSQ+2ZwRffOftwbG05ANNU0e+3yMp7EVdPkVaRUAOQB+FH6RelEwSRARFYxY3maCmQNPOtvfKYpW+oghuLl0uzbhKm8/eZc0fhol9DKQo/Vf+2GMw5PEmmIu4V3HyeWZsPdjBjFSxhx6OQzu7jJdgnr0KsAftErcyW/XT+FUc7XKZ2OeC5AU/A5N7Unhl32rznYUfPWqbNU+JK3gMwTGqDyjm1Qib8foMmZC2PJdDtVctcq2xmGhsPG6uqUcNl2tx1D+GpPg5irtR2fkAjXRskONhobtLm3DNAfXxEtsGyOmSofepa9nU28MnktbMw/YCvg+GaAe8BiHsF9/VWNkDL2/oCghhcDMGVYtJPDAhwMLEc2qv3ZzQHT2QDDhbY4GNfX7w61Jd1EwTRG0RAgyZySdeR37NH92qoIuGcd67tYprn0gMkIAmCyAukQfcC+NGStHPauLjMz1weErsO/XUzIvegWbcCvm1mXpxvd5mUhWabbhHcsJxovaRBE8RAhwQ0QRAEQUQQMnETBEEQRAQhAU0QBEEQEYQENEEQBEFEEBLQBEEQBBFBSEATBEEQRAQhAU0QBEEQEYQEdFjkpxn5Jyl1P0d88tD5qcgsMDbQ/5JvyC/TQmB/uhGd8enL3kKeA+8L3U8QBEFkBAnojNB3CsrxrkEo9J+ug3v36Zsk2Hv9hmF41W5x3L5lMiY/XNvFBgAB34y+N2Z/u1n3EwRBEOEgAR2WcRPsztL9OULsk5yHbRF7m8IJcK/0OvwEQRBERvT5l8Rwl6i/V6+Gm4v3wA38TGULwBncTrJmNSx5uxKEAik2gEg08AAn1hKHZ2fIgEc6x/iEJm6zOO3l07DpeDusfUxG5gTx+cd/VByAHzcuE5+BZAytbYQSvguQ+Czj91ZYgCbpzsYK/rlIQD9uip/2043aZyYRz09NMlAbXwEw8mOPDf95Gu7RLPCqDzXk6wdlgKHOw4y3WeZdF0EQBJE9KKD7ksaaytQ22JM6n/oi1QDMXxNPdSbjqf2wMdWYFHnOb2HxW74QAQ94Oh6nhz3yd51YmRo/fnxq1zkZkTO6U1//akrq0vQpqaSq9ot6Fl6T+lo26puTa1KXfnUs9Y0IMr5IJfX8jKs7RRmOcixkHTvtBJ7fUaaE112fuiqDFkabUp3HUq1ebfAqU4Pn0dpBEARB5J5ImLhHHK62NneIbWBac1ERFMiwxeYWuCC9Tjqh67w8TsZMnlMFcL7DuU8yY8wze6G9Pdfasw1qmpY2Wvo83F/WBD9cFsHh0ytgaHMjfKMalXgf7jDN8z5Nex39kph7HrlU7c2rLfTqaoJ/NDNNVdtrd/TCOmeZAVz78ABrY509r11YDQVY14dyPrnrONw8WA73/yb8nsIEQRBEfugXc9CTa+MwZ0sczgypgu3onjulCd+xUPgoQHKbiuuED7bFAR4tsgR2X/J9Uq5g5sKQCdlPRFgIy+c9zcJCUDcyAX8ArqvFWJdb4S6wsLVKm7mn61hcWK7Cd60Ad7dW2Mcz5zBZ8zpK4EdR6DiCIIhBTr9ZJIZCen0K3X4ohT1waKuxiriBxXEBvpzvh7ykh9s39pyv4Idm5wrm0bOWwd3GJrjFWnj74DIo0Oaj3TwID1SUA7S2svwMvjAN53rVCm/lwq70fhB+NEFo+c7jmVNaOa+jDb4LqZETBEEQ+aPfCGgboTHbJODi5klQmlQCnDlrcZkTXCRWXFwMuz+XEXnkVvwPLhM2N3tDHXSv/wN876M92yTg+tYmGMqENDc3F5bDj3WNOgv4AGFrnf+71byOJvj2d8fFoMCHYSVs4HDw/b55z5ogCGKQEIlV3O3V++EXi67A0SGvAPDV2Qnm/zOMStbD7CKPFdqOFd4AXUc2waHFF2VIUQVzUqusuW0kf6u43Suf/VZY85XbWwHuP+nUfL1WSNurwBXGKm7EqscjjVPurMtYxY04V3K7ywluB63iJgiCyDV9LqB7TMcpeCP2VyjmwlzGqdeuHnW+ZhUF9FeraCEWQRAE4Uc/NHEbdCThhvTaXIG/M417xMSHZDgidB2HbtSeaZU0QRAEEUD/16AZXibuEYfRbD5WhvoYzayc/kMkBEEQBCEYEAKaIAiCIAYa/d/ETRAEQRADEBLQBEEQBBFBSEATBEEQRAQhAU0QBEEQEYQENEEQBEFEEBLQBEEQBBFBSEBHCPzcp9piUvcrRJzh1qf/bnZmJKBDK7stLnfiygf4bjiroyP7T4unp+s4tGnn8mUPvmEeWfQ+zHd/EgTR65CAjhplE2CY9Dr8iqUHnDtR5fSToaVQxMvFrS5lVH8EhdXTdXDvPq2fZr2fofASg5XoC7xyuGec9Dr8BEH0d0hARwi+S5RE9w9ISjdywZn7r6oxwboC99pudJbN6htwX3Dj24NKdD9BEAOCvv9Nf7QXtj93CrrwP9/PGd1euCCTBbj5hUpDtwk+6JBJDPzU53bcH1ovw9wv2lG+ni7KPnrkFLzB01jdKi+2S+Zyt4Ed85FMsuiGE2uKobh4N5yTMZkwvGq3pRHr/lAok65uypVxTlM17kSlmX4z0hI9tEpuWk1vinfUb5ienXXLtpnmaF7HWm2bTOMcdDN/4n2+zWf6vbYZ0iRsOatOZeZfxsoBuLPCKw/i3wZ+/l4mdazT0Va/NqTrB62vC6uhRO0HrvsJghgY4Kc++5SWPaltUJnaVhNPdfKIK6nGGhbe8gUPIZ2H96QakzLAOL9Fz4/pG0UZsCd1nsd8kWpg4YYWHmCwsFZeKhlP7bfSZX38WHEcL5vn2WjVy+vUy/CkK/XOL8enxo/flfpMxuSSqzunpC5NN9xOrU2dx1KtLC7Jo75IJZm/9WQ3TxJ0p77+lXGMJyKf81hElCnKl3xRz9pRn7oqg9+cXJO69KtjqW9k2B+PshCjPISft9Vm9znwdFknr9843g2r27ffFD7t44Rog0cfO+MD2uDqB79rQhDEQCUiVrEqmGPt7zwWZm+oAjjfYWmvhYtWaVtJAkyew9Ibkpp2i+j7Pz8Eo2oAbrZ18hDOrT6rbztZ9FModqTj5hrV1t7RsQ2sLUVFUCDDFptbDM3eZAzMf70d2tvXwlQZk3PMOeiXtPNCLWof0/xWvAYdu9h/ltexj3PiT/Bt8zIYqR+TD5ob4RvnxQlP6ZMwDA7AbUt5TMDtg+Vw/0LZ5q4m+IdxDqMX1sFQzzqdWq6trZdCkaPfyuHHZQDfJ0Muigtow/BYCUBrK9eUcXtRT206qA1mP/A6WZ7pAZYBgiAGDNGdttIFMO75rJmWt8+MywSNmpgU8AgT8m/HHbtZXdiqHT9kOSQaZEJIJtfGYc6WOJxRZTjM3xGidCOMZIL5zkG3IL6VbPNeeJZD0DQ/thbg26eVYHSav4MphZG15XDnQymZ0GRdVgEPqIt7uRXuMsF1XZmF0T1dx+IEXDhaPAjjtuNAxr3ozWmGr2ADF5kQhoA28Png5la4wwYI3zSyH1nr+7wP7rQ1wdCSh0UeRvo2OPvh1ieNcHfpi2TCJohBRCQFdFfbJU3gJuBobA/A4f2wPhUXroVp0BmAc9RnNqOGLY9P7YdSpkFnCgpp63jYA4fMee4IgBrb9dY69nBvg+vGK1hceHHBkV/4/LnU8HGwYLYjiOHTK2DoQSHUrn14AIa9oM3F88VQbPChWxG4k/OvPF3XwN3wPsIBjHVshqvWg9pQOAHuxXyo9U54EcZUtLH2XIXvWgHujQkNOEwb7H4Qgt6yIhAEMSiIoIBOwIeLL8KI6p8KAd3RATfZv4ISpQ0zge2lQaeh69JFh4bddeT3GWvQTsZC4aPS66Bni8R6TOI16NzKHuS/qYbRVXVwP9RBp25elWbT654m1zA8DPfoZlhc8CX3ufYjq9XohdVQwAT77QSat5fBfbpc4qbgNOfAjh2DmucKfVGZE9RkdUvCrXidhwYtztXS5HWC2sCPZUL5rUa4d1YpF7Tff8jq1F6DCtUG2Q8317M0JuhJeyaIwUVEBLRmOh7yCkCLZp4uqoSqw5MgOVOl/xlGtayGESI1FJNrX4VYA9N4ZR2HLv0M5myRiaFwr+A+c341LNHntXsLJrBssyhzSjvFFb789aI6+SB/EMb9po5pYCy/JUjwPWemkRplWHOz1qpiYW69u7VChK3jWZkvLLPjn26FgpOsDpmKmCu4O7eWwEhtNTqfk+VpzlXS5kdRRs/CufRl8H3t8zBaxgnQbM20zVaffmC4zexO8/Hol1gfNLPBizy2s+1FpunLRAut/1Qdej+kbcOD8KMJTXDnYIkYXKBAb0UBXAI/kkI2XBtEP9xtboJhTNATBDG4GIIrxaS/b8BXmmaCtsCLIAgLPvACGPnxRmOgQhDEQCe6i8QIYtAjProybB8JZ4IYjJCAJoioYX3MBU38xhfRCIIYNPS9iZsgCIIgCBekQRMEQRBEBCEBTRAEQRARhAQ0QRAEQUQQEtAEQRAEEUFIQBMEQRBEBCEBTRAEQRARhAR0RshPfkZ1JyuJ2Llrb8DWmEgCjg6pgqMfyWAukO/w8k936n6F9Y6v7jLd8SoY5ydH9fKdW1A6nPltbaOt9naVbvgnTK1PfYo6zM+X9ow0ZRrtVHnsz6pqzjhHVx6zD0KRgA5+vN91VH3u/330/OK+5ua1dPaDs53m52stl+EmMIFYn9oVLt395o1xnh7t8/9dCNKlh+uH/LaBE9RPPr8HNz73rf7c0v19Ab4HTYTlSqqxpjK1rSae6pQxueWLVANUphpaZDBLzm9hbYQ9qfMy7E9u6nPQeSzVOn1KKvmF4VfwuPrUVRnMB9+cXJO69KtjqW9k+OrOKY6wm+7U17+akmo92S3Dsozpa1Jfh7zQzjrd5fUcvzK/SCVZH3vVxdu0U+98J2Y/pSvLly/qWT/Vp77m/eVxXfn1Zv14EvOF78/c4dFvvM12W8S11touzyndPcrvqTR9mzGqn1T/GG0Mg7NN4rz1NprX2/W7wDq1/MG/G3c/9LQNgW0M7CdxD1vPHK9nkESUvcb9PNKPSXN8b0AadEaIfabXv12p7T0dPcS2mH30bXO11SKi+3uNBFzf2uTYonL0wjoY2lwH1/00ksSf4NvmZVBQJbaCFGUA3H9Sbh8ZZbpa4Xsohx9PV20PD99Ra8IEeytPuYNXeJgG8uYEGPvxRnhAxjhh2tTvWqEAt+GMyahe5yv4odne5pPDtwtV4FaeTTBU35Sl9Hm4v+wA3PTTmphWdfNgeU63/7z2Vp1zv2/ehib49q2QarSrTWJjGzj4B2kNCPG7KN0Ij2h7yIv0RvjGz+ph1tnjNgS3MaifbsX/AHfK6mCkagLfEY7d628amjxv6zIY+ZsKGaHR588wm74X0LhZBpqM8b+1W5TTPIsm2zeOdPJ9nVUeDNuYu01tgg86ZJKFe0eqTEy7wmwsncvELco++pGzDlf5jnPUyxGmZtzJK8lC9s5dzGWw57TeP74mbkcbRH0uPt8NxcXFsOrdbhmRCbhjVkJ+nlL3Z4ZpTnOamEyTpWaSTLwPd8C5RSX/UbP/1jaZDlhZbx4AWPqk/YDGMsoq4IG0wtnZhk72YHHzlSNPxmYy9hCxTXXOHblyAX/4abudiS0v9YFKEOz6ajuVucFdv0J8RzxnJksvSmEk335UlYuDBuMhz3AIcL4bGcDdtq9k2Am/n1z3R5p7MhDcVhWcO5bxQSP739pqCxajH3Tz8a1PGo02yfsamuCHy+xfxr+LYMx+6HEbAtsY1E9ysFVRbt+TXBCz/4598MU9AK6d8hS5eYblgmho0LgV5LYYLEmh5rcfSmvicMYQTDcWL4dDx58QeZKrARb/XgphFIrLIfHoq+xYPJ65lomQiOlC2iMPc8/OkMkhEFppHJYcniRj3CRnLoe/b7DzJWdqQrLjFLwx8xKUJu36bU28FJ7lca8CKhqxFi1PBltaFi6qF8e0VMkYA75zmN4GUV/vcwCuaw8a84GMwvl6ax3TzBLwiHQlmtC4Ff8TwG/stJFL2Qj6d9oI2dpnWcwx3Sxp5Fs5ej5wu5rgH81ObehWso1rlnf0QYJrno0JzAkHrDaMZULA5O7WZfDDC7Kd+3CbzrrwD218GD9dB/fuU+fZyDQFmcaw5kxZnrvsAWhvrWnMp6EAVudgpjHtogTLldtmdjZWcG24Vzfm4Lt1tcH9J+V5nqyD7y1hynD1wwG4d2tFRkIatx9V5eJA5x8VjZqmKISxQ8NSD3VPpJDQtDwk8J4MxN4rnA9O0TLB7hlbsLB77i2AMbJ87AfcrrRb7wdlDeGCvILde+KesQRwJr8LhvdAROHdDz1uQ2Abg/rJHmzx34i1JW4bfGcN4plQhzoYE3og2ndExMRdBXMsYTUWZm9gAuZ8h1NLrVkNS1SeoiIogIvwdxTAHZ9Ce8MkKP25JshmVDMhfxHam6SW/dFxSDSwOvK8f/OIw/stoV9Y/gSMgEvQ5dDktTb1ARfOxFkbfw2zi2SEH4+thfb2dtj7zBgZkUO4ULAfZCi4bO2GwR+OTGD+xl8zG1610aH94J7JzhEyg2tlf4B72INfCfehJQ/z/zr8IWRoUxwm2G7PUu1kDxn2g+5UC6i4UF8GIzVzoBdD9Y0upCmOaxIh4NrI0gO+I3cudLBt/OHD+ksJOE3AWnmkG8nKu+4Q0vgQVAMNeY69vJDr2of6HuYMZZL8UPS1ux+ERnyXaUqhhR/eC0rIs/4C3M9cG3CNfkmduxzI/A7gx6wNXrhMqJJQ92QgtlB6RFkmLIH1IIx7Sf9NlMJ9HsLVEkrseqs+c1gHQv4uMN91LwEs8esHpMdtCGxjun5CcAAt9li3fw9qL3Z2LO4Q53NeUSO6c9ANSaeAfrRIm/cVGicXhh1JuAETodAhdMZC4aNM6750hYe62i4xAR/r23njokr4Bdf8l1sm5pyung6kE7rOS2+U4IJLG2FfbmUaofox+cBH5/Jhio794BwwzaKTz42qOeSr8F0rT3GiBgNec4kOoaDm0t4Xwo23MTus82SYZnx9BTWfH84x3KStaRLXdrHBEXvIjuUDDTRHo7bjnPd0rm5mzmNVbvaI63IXBaZWBwoGBe8HhxXAYzrBvB8cgwzxQLYGSzhAxEGNPvfKz90eyDyyvRyAtcstuNxzpBZB96QUKnYbTcsRWkGcQolbcjTMa6H3E4f1k1Moifl3i7C/CxSQep+5SNMPPW1DYBuD++nOCtTc2XVUA2jt98oHFmkGvlEjkgI6I4FaFPPQVIUwGjHxIR4qLJnoFvh9AQppZbpuqYLkTK+58sGG8QPmC3g0c5QL9qBj2hCwh4f1QEUTl6L0ST6Sdj48sA73Qio/E97wWIlz7k/hGKVninux0uiXZPuVC9DIe4xjYCEffI5FYsLcq2Nq4ZbGkhNEfSgIHHWgk30xrIQJS/ZAdaXr7TCtMtbDncEX0RkaXNDCHzntYd4v/OFuzJEKAu5JjpjLtNuoz2sKbRgMSw4OTqz5VCY0O/nCRft4NP0qhk+vEJYUfbDJz122N+zvAgcaUjgrAWji1w89bkNgG4P66UF4gP0HQ7PnApyvMRFz1I4BH58iklNuWb1imF8iKKAT8OHiizCi+qchBfRPobjmIiT+ze7criO/5ybt6YvGiogZMyEG7nntPoUPLEweglE1AMkz+WjnWJhcPQluHP9UW5iWj0VimcG1OPYDthYmFbIfI2pxfvN3rgeu0JBsxI/4zgrblCs0RVMQ+8yhIfigcGhYYrGL9bDkD5IDcFumo2bjvUjMxv/h7g03kSqNHevHOW99IJMxsp+sh5t8mFl1MLhFwUtzzB94nunm5vlDnz1QzXUKoeH3E7sfpMkcEdfCnst0gAKKC1vN7M7xWO2tCLwngxHXWztPbmK2hafQEjXLEk+XfsT1u2H3DF8MpxY/hvldiIEGTin4Cee0/dDjNgS3Maif+P3CfrvW3Dy7nt2o7fOFZYalBB2fIloGI9Gf7wFyFgzBd62kv2/gC5fiMiDARVL6Ai5cQX0GXk2zYMoUNlUwx/WakVsgmfX44yfMVD1iEVp79X74hRoU4KKw2F+hOFkv5nxDnCeHH7cHbsggbEl33jpyIVyDDFpMglLVBiNPrGU/jNomFrY52oECuroe5u08m/t5aGk+s0DtyPXDcAskfUTvFIhsxL6vAv6xAue87PlXvtBMPcDQjGtoftZCND+NUD6olcbp0ij088DyX2gVpjlZnqN+xKMNQehlYP0FbRV83s3RDt7ORvixxythZhuG7XOvRjXzpNOc3PgNHHBOXLTH1Q8SR1vMe4LhSDeuBZJZO5ngeRwHggq7fRxH/UaaRNxzJexBbt9jOmHuyUDStsPoa9QSKxrhOpqTrd+Pkcfjt+W4HsY96Xet9HKC+qGnbUCC0gOvl3G/eN33FjxvhtepF4mIgAYPgUoQBEEQg5foLhIjCIIgiEHMoNeg8eMehxZflCEP9Ne7+grT7O1CN2MTBEEQA4G+F9AEQRAEQbggEzdBEARBRBAS0ARBEAQRQUhAEwRBEEQEIQFNEARBEBGEBDRBEARBRBAS0ARBEAQRQeg1q17k4x1/gn9+VwZgDPx743+Fx2WIc+VD+H+WtMEJGZy/9r/A/6zWPxh8Gd566X/BC/8hg/9UAu27ZoH8uChBEAQxgOg3GjR+j3t7Tza7wI99DOnD3aM++//gn+ExuN34PHf//kw3/PNLH4K9O/T/hv/OhPNj/0Ok3z5UArD7f8F//0wmMz7ewYTzRFXGf4E3oQ2Kd/xvmUoQBEEMJMjE3Vv85/8Kt9dNkQGAxxeWwPz/uAL/Lrashs7jF6GOacQv/GcRhodmwfpnAOrelEKcadfb370P3lyoyhgHC18YA/DuRXhLlkEQBEEMHKIhoLl2yzRky+2FCzKJa84s7sxmFtj8imceROVT7uhHMkGVzT+VeRESMTvPG0ds/dVsgyPN4hzsLi6G4jUnILcbMV6Gf//gNsyf/Z9sczUXyOz/f9yCdvavs+UKnPinh+CfxRbXjMvw1pvYitvQ/pWIIQiCIAYOERDQCTjKhGdBSxzWp5Szv8s9uVbEzdnCArj1okce/J73xTkqPg5LDk+C5EwpwIsq4RcYn1wNI/g3q+18zq0h9Ta8CgWLl/sI6dzw8VtthsAFeOz/EvPNncffhvuW3IL1h5iWDUxAKw154kghwHGuuuJ/QfsL/wXe/CeAz//PZZ5MEARBDBwiY+JOnunB/PKMVY79jAvLn2DC+BJ0hZxv7mr6K9xgwt8uoxRmMSF/4/in4NxHfiqsbW+H9tfnQ492Scb5aKYd171gLvDCRWB/guL/MwluWwvIhkOxJsQt4d34PPy/0hyuBDtBEAQxcIiAgC6FZ5nGGtPM15lrrkwL18zTwpwdnq5LFw3zeVX6Ha56AhPO9/23br5CWwlYRd1/Q634eXuu+qtb1opuzrufG8K7G9rVim6CIAhiQBERDRqFtDQvJ1cDLF5uzyEH0gkfPPcKJHXzNzdnh6dw4iTDfC5drreZRNO0FM7O16fGwT/Pvo+/NmUtEmN0/p9bAM8UcWE8duZDMB/0RWKMK9fhc6bL/7Mh6AmCIIj+T2RM3BZFRVAgvTpciG5ucSwME1yBvzcAjJio7MBMYG/w0KB5uRehvcmtnXOTONOggwcFPVkkJl6jOvHMY4ZwFnAB/B9tsO64nE9mwnzd7ttQ939LgfzQf4Lqf7oNL7yqXs26DG+9iuUJAU4QBEEMLPr+QyVygZYuUEcc3m8v4LJATXk5JJgwFlTBHLVQ7KO9sH1mnMcisZZXAWb+GUYl62F2kYxEjHyOekK1AwX0Aqiv3AFnM5yHdn6kRIMJbMukjRq29qGSuv9hzzMLjA+V6McSBEEQAwr6khhBEARBRJDombgJgiAIgiABTRAEQRBRhAQ0QRAEQUQQEtAEQRAEEUFIQBMEQRBEBCEBTRAEQRARhAQ0QRAEQUQQEtAEQRAEEUFIQBMEQRBEBBkcXxLjn/gE+9OgJh6f+US8Pzkq6DqyCQ4dfwKW5HBDjWu7SuH6wWUw8uONAJp/tEzPmMRr8OUKcJQh6pAByKL8ruPQ9nQd3JXBobWNUFL1oAwJ0tZhHC9I146rcHl9Bfyjwl1PaDz6QeHd1gR0PL4M7shYQTncf3I3jLMutpnHTA/Hrfha6Nza5NmPHN72AwBLD8AjL5XKyF5E1a8oq4Ox26thuAy6+kFvp+e1Fgzbl4CinJ2OuEe+bZZBVxtDYJynq31B93269LD90NM2hOiHwN9/UBsUfveljOfHgeb3KoMIBgV03/NFqgEqUw0tMphrWvaktsGe1HkZ9Cd8OzoPb0xtq4mnOmU4F1zdOSV16VfHUt8Y/qz5oj51aXp96qoM8vDOL2Qgmzq6U1//ak3qa3XSncdSrdOnpJJ2kalvTq5xlOmqgx+jtSkQrHNKqvVktwxngdkPEt5Wz7Z8kUpO187TBaZ7nHdW53WMl+V1frzvdh7j+fTr1mu4+k202W6L6Ae77SGuFb/+6fo2c0Q/qTaZbQyB2SZ+3nobjevtuu+xzvS/CxdmnT1uQ3A/hPttpmuDQl53ds6uftaP8T2eCAuZuCPEsJJy6XP6c0bpRsdod/TCOhja3AjfdMmIQB6Ecds1LbGwGgqWAtz5MCEjEnCdaYPDXrBH7aKOOriuskSIO21NTAN40kdzT0NXK3zPNOZ7tE3JhsdKpC8ct+J18MMLCaYBTZAxBkwTuVnSyK5XHu6DkNxKtjEtbAIMk2G8/j/Sm5t4n2nOy6DA0uLY/fHCMri79U9wTcaYXHuLaYBLX8zY0uAL0ypvHiyH+xeq+1q0AQ7+AS6HvK9dbSp9Hu4va4Jv3xI37a34H+AO00ZHqirUff/mcbjFI4J+F27MOnvchsB+CP5tBrVBwdvCNOcxFTJCZ9wEe95U9xNZ0ef9d3RIFWwf8gokmT85E/3SbdVvCtzJSksbsgk+6JBJkgtb9fQqeOOIe1tJCzR5Yz5HHUE423Bo8UUZr9MNJ9YUQ3HxbjgnYzJheNVueESapHS/AzQhPV5qu/XqISFAE5aVppmqQoNmtDTlp0U+sO+zxwDiR8/+f5+8KiLC4GiDZrLLgB73Qzr4w5E9uJ5eaz38OlgdQ2ufDy3s8fqmNfuxwVSwSR9Nmtp5elwrRz88/pqv4PRieNWLMIw9wDtVuezeu+4QAgyHAGfwh3IbfOclHLkQYYPPWcaJm/f0rvC/y1ufNMLdsgp4QAkV7JM38Xo3wQ9y51bE2Q+l0GFVkYDbZpsSfxL3XGsrO++r8E1jEwytKLd/i/I8oLnVmAYJiasfet6GwH4I/G0GtUHC6u3eCs57QIf9Nko+loMV3U9kRZ8L6GdTcVifehVizB9rQb90tfYN0HXkOMA2O23OlouQ2HAK1DMA54PPnF8NS9SxzPnNHYv56EtQmnTWkR651eWjr1rlLzk8Sab1Inx+pw3uP5mARz6WThPifH6ptQ7GqrR9bASdBv4DNX/UbwGMUcd/fIA/oLvjPsLV64FrPbBxbrKUa4Ej2Uj/bttXPFZwAK57PiwZrEycZ7t3n2pDIxvFy7SQpO8H0S6sl8/FHVxmtaPNcZ4ogO02OtOY9vESllsi87DyWXuDBWoukfONEw7IfkrAyAmaMGWY/TC2to31eyZCuhSKVLnYD3weX3vgojA2rCPqoe+FECKaFshh1+PDJ61zeOQk0+rYNXHcE0FMmCB+A3jvsAHdDy+Ie8YaFLLfze1ZsnzeD+VwZ4XeD7Y1hAvyNyfAWLxnNAF8b0xcW1wz8OXTrVCA7cx0ICLx7occtCGoHwJ/m8FtwOsLtXUkdHuJfmGBKFy0yrGv8+Q5VQANSUtAcxr+ChcMrdoEBbkQzvXOfaKD6PgU2huqYE6gQB8D819vh/b2tTBVxuQOMSIe6vvjwBEw025+46F1e8G1IfYQ0Uxe3Cz2kh4uhftcwlXB2vM7FPDmg4bBNaI/wD1sIKGE1tCSh/l/Maq2H5YoPO+ssIU0f3gtPdCDRSVB/SCEDtaNDye+yEWGbQFr5+GOPQhha4VDSPOHpBosyXPIRPPrMV1N8I/mZTDSd8rC3Q9cI2aDo9uhm4mDgFJLyI9kfYUDK0t44rVU5y4HMrdLUGh44TaxClhf64uMCsvhx7pQCYkltFg71b2jBBpaI/T7afj0Cg/hagsta9DrsA6Ivuhse5HdE2phVQn8yPVbTPO74Pj1A9LzNqTtByTdb5OTpg38maFPaRD5pn9MEeAqa2la5m5mXCYIChfVM42W3T8xlWcvXJBpNnFIoFl6y88yE85IR9K1wrv3+Qp+aDZ+bDp8XjQk+CPlJtlGlyDkP3D5sEVnr/jUwQcFmp6ZgDDN8GgSxZG3pWldhe9aeYo3fJ7LfiDzeeEguIZgt/HLx5WpGdMy6IewcJO2NlBh9XfjQ3afPEec20dNwzHvKR50el9mpBUGcbmVaapOS8SX+kph3g9OKwBq+qZJlmtKehnaIAPnyfVrjFYDHNTYc68MPHc1kEGhEMN2uQWXaw5Vw9kG95SGeU+6TPlMaDiFlvit2BjXwrWiGvvJKbT4/LvGnRWokbJzVIMJ3v8maX4XEv9+yEEbgvoh8LeZrg3s3JiCMGyfseqbyCv9QEAn4GhsD8Dh/ZZ5eX0L06ANUEir9Dlb4nDmOdsELmAacGo/lJ5/JcO556jwMNyThWbhAoWbFM62xihhgrsT55dQK5QPXK5lGlzbJR9C5isapU/ykbZTO8CHBNOKpvsMLFwP0xCYWnje57mMBxl/MDoXibkXxBhaOHPZWwU84PXhNXDWYfVF4QS4l7XRMR0ind4ObqrX0zVtlg+WHBocu7YBixevfYiv3pgL74TW6JhDlaDwFa8Tqja4pzT4egy9jZrwE9qwMS/OBydqvhWFJhuYaJYSbkbnGRFhJQJj4Rqeu2jvg/AA+4+vLOlClQsu4zx9fxcWfv3Q8zYE9kPgbzOgDdxig4MEe6CDrweqKaKcDj4Ji4gI6IdgVA1A8ozHVe7ogJvsX0GJmlNmAtvQoE0KJ/rND4+F2W+/CrHNGQrpGTMhxjTwix+JIH8HOg+LxNIjfqR3t9Z5r07lpkH2I/pECnCpJTthmgRqD+xh5RLODDFa1rQfbtKSfol4oOKD3+shJH7k+vzetV3s4eiY53bC09lDRJnNRs9CTfR9ebzSSHggHKH6ITOEJqk9/PjDTquDIeZevUyeeYKfJ9Ogfc3qeC2YRvQ798KxsPBr4VjlLwSMNddpgJowF7a6yRpxrfa2MQcBoq9lIAzyetvnye4ZNDFbwlMMAG0zrkyXIUTcc9q8N7/vleCSwk9fi6EsKNocc/rfhSRNP/S4DYH9EPzbTNsG16BYzOWrKaKcDj4JiyH4rpX09y3mx0K2vGot4nIKxElQ2vIEtM9MwnT54RFcwX1ms0gVoLasfZTE/FCJVZfMF+ZDJbwMOTCoWQ1LNiTh0LaY8aESFNDTYN2pTXAsL/PQ4kHAR64KNqq2PkaA2rFlvmMPypMT4CafjxIPDfEA5YlO8EfGH6qGQMQRe0UjXEezGaY7ytfBB5OtxTrq0duHmALTqttGPx41/YK2Cj4n5jWo8CSgHxS8HnDX7zpP8xwQV1+k05w88Bs4qP7w62tHWzwGMEZb3dc8s3a67jfH9TLq97iW7EQBP2TyvZfFhiPSLdM7K2Mka2NG1zuoHUZfD9vH/CvQlKtZXhx5nPczx7gejo9v+F0rRzlB/cDoSRs4wdcj7W8TCWqDBr831LOByAvREdAEQRAEQVj0j0ViBEEQBDHIIAFNEARBEBGEBDRBEARBRBAS0ARBEAQRQUhAEwRBEEQEIQFNEARBEBGEBDRBEAThori4WPoEZtgPv3xhj0cyyauDx4VxYckkr8LrmGzKQeg9aIIgCMIFCpX29nYZcoe98BNEeJxXml95el1+ZSLm8WHbGJRHJ1f5My0HIQE9wOh+dxVMe/m0DM2DHS17Yb7+zWiJla9yB5x9fT6MkfEEQRDZCBkzTQ/7+b1Q6V75wh6bDr88GJ8pfuWo+KAyg9oKKKAHPC17UttgT+q8DGbOlVRjTWVq/+ErMhxduk6sTI3/5TupLhn25Ot3UivHr0y987UMm/D08amVJ9KWwglVX4Z8tmN8avz4XanPDL+Tz1K7WBu903JEBv3gh3/7ewdRv3J91w5fZB+rNu46J+Mz4dwu+1jdTzjR7+eAexv70Au/+HRkeoye38/vB+YJ47zwi/fDzK+X71WWV5yTrtQ7v2TH8uep8EdkDjoBR4dUwVG5GQWRZ64k4XTlU1DmoVlHhsoYxKTX4Vd83gz1G3bAjsp6aP5cxmXC5ROwqngVnLgsw31BntuAVpIFf9sBZ9koHUfqxzbUw4I1J6BbpkeCcfNhL2/fMdgko7JjHsQekl6HnzCZHLPtZbpfkU4LxXg/rRDjvVxQmg7G6XUovworvwp7gccEOcQsQ8Wb+NVl5tfLNtOwDBWXru2cn8Qsi2aPBXRdXV2gq62tlbmJKNCddO+W7UA+NPc+0zeG71jxPOlz+nXONdXDpvL5UDZ3HtQ35X7vME4O+mHqy/ijzc/GKek5B2+9fBo2/Ys9fTG1ZgfMO7UO3spmQBNlHooxkSzR/YSTcTF7AyHdr6ELEj8wPZ3QCutM9Lrxv6pDj1MuX2CdpksXHwbMG67NYyD2E+lVfqlbZ82FCxdSc+fO9XVVVVWpjo4OmdtNA1Smtnm5LV/IHIgwMdvpG1ONSZkkOb9FTzfM0aaJm4dZPkcd6TBN3Ko9znY426Cb1L/g52mayDsPb0xtq4mnOmWYI0102ZpVw5ic/fMos7Fw3m2QZhgtn7sslSdfJlVspzTR8/7yqMcwnVp5XPG2s883fT/w/nPVKY5ReUUeVYaRN7ANsv92GGfld65eeORV5m5Rh7O9Cvvc0rVBTY943AvojGOcZnY/87NojyvN7zzMduUTbAPe47wt8jx873nltCkkefw7Vv9/ZuV1nK9evpmmkHnM65YLsFz1P51T6H4dM7/pskEdZ/73QtUTxpn0JA5R5ap0PazHhyUnc9CHDh3yFM7o4vG4zJUOIcAaWmTQoPPwHrcg1ASbp6DT0QU097sFfHp0AS2FsyHcPdukCWl3G33OuYc/wDACGh9w6csXDxt3HvdD27s+9bAKKUwyRT7wRJ0eD3YpAL0FgYTnSTMPz/HrB486+XXzOF+/eCRdG1zH+bXFB48+wmN14ea+dkYdHm1PKxz5+RjnysrQ+8keAJhEXECztnn1p6LrxC7HdeRtVPnl8ZhfnL84T8d58DzaveB3D2tl5Rusx8QrziRdnqDjMd10Kt7rf6YEHeeVHjYOwXiVZubRw37Hm+RkDnrx4sUwZcoUGbKZNWsWVFZWylD2FC5aBbOLZIAxeU4VQEMSrH3kkYa/woUO6fcB95XePvMSlCbrHeWF51M4OmQ5JB6196oWJODi5klQus3eG7pw0c8gBnG4KOfVC8ufgBF6Gz9qgSRUwaQZMqx4bC03h+TDvIxzkmhuaS7PsvzLzfAe7nX9cpDBdgzMfx1NUfkx7aJ5e97cMmm6nQplG8Bh5j7XsA5ObzgGax+TETnHo05s086FuTvfx8pgE2jz67zv58FT0zK8bp/vZtd8H8Ra7Gs+r1jM6I+Z9hTMO/UeNKs5cHl9V6h7w2wDnIPmbfNgR43XWZ6D3TPfg6dajGvO7mf9OvA64QIk+3LuPyvYfW+97SCu/+n2JA8hY55Z63hbYmr5JoBTSfYbV2j9WrkDFrI+0advxP2z1S5j3HxYYdxjnDw+H3KJbgrWXRDKhK1cX+DVZq84E4zX26z7zbSw5GyR2OrVq6VPUFBQAKtWrZKhHtJxCt4YUgXblZsZlwmCwkX1sOQwE5MxlWcvewSYxCGx+CLAlp9lKZwBbizew35wTBD/3NigvKMDbsJFrX50r2g/TkZRJUzfchHamzp58MKZOIw4XO05D5Qvxjyzl98kZU3FsOrdLJYK4eIy6e07UEg4F7fwB93fknLxUzck/2YLoXzB53O3NbPWIEJwZSw80zIVFu6059e7z77HBh0rPF+Z8+XUOpj2xxicbVev2om+seBC4DS8d1b2HK+jTBOwzjbwhXk+iwvP7VwAF3QBY8EEt/ZgK57JBk8yZUDBF/xp51ldLxPCIK7L6Zen2cczt4Dd5/0VfM74ubBgH2SaP8iZ+bzwaq9XnIlfPNajp5nhdORMQJeUlMDKlStlCLhwHjVqlAz1hAQcje0BOLwf1qfiwrUwDdoAhbRKn7MlDmeeO+XUsJm2Oie1H0rPvwLbtyZkXGaMwDa0TGSCeBN8oGvrRUVQgII7KdunuWc1DRk1/xvHP2XtQo27CqYvGitTehcUaKf/0hyt1bxhQSHB/tVX2z8y/j63pQmKxRW6dpMXxpXBU2oFOV9RnqHwDAHXNvkgoBua/wI+mqsPXPtlepu2SAzYkDFpaOGo6Yl7wbsOuw1Cy3OWJ2Fa+gI45qHVdcOJNQtY3xyzHmztLWxgI1MHDmg9WAew86x9nsczWZMu7tl5+vHKBVqr8kMmQsQL9dv0c+kISvdD7zcz7Befb/Bc9HrMcBA5fc2quroaZsyYAXPnzoXZs2fL2DA8BKNq2OPjjIfg5Nop08hLlDBjAtvQoE0KJ06SPpOxMPvtVyG2OXshDTNWSW1dF9KlMIlpx4kN5qDAYEY1y7kH4s/9GW76ac/cJJmlhptvDJOn86MoOvhgxh/ibv5gzyUoJEB/4HN3FnZU2pogNy9uWwC7061W5qtY7WMyZwzM/xfWG0y75IKrPIsHaVAbuIZbD/vW1MK6n2Q6AJBm+Gr7GqCW69KAH1sIO4ANbtgg4z3w0I5lG5o/RyvBJigzpw1Qc6wGn2kPHBDo1gx2X/w2Qw2ar8q2TeL81bGsNEulyef+noTLSW6xs606rK6MNGg5UHq5NviVu154PmQqRLxw/j6dLgjMY7ZBjwvTPpUvG/A43fnFhUFvJx6XcbvkXHTOuHz5curbb7+VoQxIxpl+q1ZAOxdhiQVXKm1jqrEF89oLsMwV3K6PkpiruK26jHy+mKu47Tq94nzbwRDnkmaRWg8XgXgv2nLim0cthjGdviBHz4NlYNhVVr4WiYlyXQtnGK5zcp2LR1uMPM7FUfqx0rkWJonFQv7nbzqPBWF+bVDIdK9zDgNfiKTK97rmDH3hkieyDe570u88tb42zm/XOewzux9U3abT63KcA7sG/JgsFompcjL+bfFzSL9QzXke7PzOaQvmtOP1+9R1HkZfoevtRWJYdjqC0hHV9nQuDHo+85gwZXjlCTou7DHpygmTP93xOoPjS2IRInDFeQ/RHwC+4I88KA8RDTyEA5ElUrhlO9gZ6AQJnbBCJShfpuV45Q9bhgLzK5cp2dSl8KszbJn0Le7eBBe7xf4KxVmvIg+Gm53/8lT672ujWZKvuPX+TjcRFdAsuwDgeHseV6QPFnDaZRqsw7cQ+uTDMQSROYNeQOOrV4dwdbcfNathydv261NZ8dFea+V5rMW5cCzXOOeFabOMfgkfQIm5Wlw45Fp8paV743/dByU4b4tzwnSvE/0M0qAJgiAIIoLkdBU3QRAEQRC5gQQ0QRAEQUQQEtAEQRAEEUFIQBMEQeQI8yMUYT9K4Zcvk49aZPQBDA08LowLSyZ5FV7HZFPOQIMWiREEQeQIFCpeX49Kh58g8vvqlF95el1+ZSLm8WHbGJRHJ1f5My1noEECOgPo1SSCIPzIRsiYaXrYz++FSvfKF/bYdPjlwfhM8StHxQeVGdRWJ+r9d+bFTwT30bfNswYFdL/G+ESo/unNnBK0f7DcvzXMJ/hCfe0rQ8RnDMUXp3S/E/lpynx+mSqDfvDDv/29g/okpHAR/IqX7GPVxqy+jKV/VYu+sOWPfj8H3NvYh174xacj02P0/H5+PzBPGOeFX7wfZn69fK+yvOKcyM/N8uep7jfx2W884vTzOWix01VBi9w9KrkaYPFyOCr3YM4puNWiz1Z7kaEyBtYmi7pfwXdd2gE71C5MmcK31FsV/EH/fJLnNvDNGP62A86yUTqO1I9tqIcFa06wcXiEGDcf9vL2HeM7VmXPPIg9JL0OP2Gib2+q+xXptFCM99MKMd7LBaXpYJxeh/KrsPKrsBd4TJBDzDJUvIlfXWZ+vWwzDctQcenazvlJzLZo6n4LsXnMhWSkfsmB9KmArqurC3S1tbUyt5uuI3+GZM1qmKW+zMX3XAZIbgvYVSoLupPuHaYdyIdmX22krm/+rvt1xK5L86FsrrbHb67JQT9MfRl/tH3xOcZz8NbLpx1bKvJ9n0+tg7eyGdBEGb5LlET3E074jmMS3a+hCxI/MD2d0ArrTPS68b+qQ49TLl9gnaZLFx8GzBuuzWKrToHuHyBITbpPuHDhQmru3Lm+rqqqKtXR0SFzuzF3mPLfpcpv16Hw+JulldlYOG/zl8euP66yVJ58mVS1XYT8NmAwTKdWHle87ezzTd8PvP9cdYpjVF6RR5Vh5A1sg+w/c5ejTDab8MirzN2iDmd7Ffa5pWuDmh7xuBfQGcc4zex+pjnRHlea33mY7con2Aa8x3lb5Hn43vPKaVNI8vh3rP7/zMrrOF+9fDNNIfOY1y0XYLnqfzqn0P06Zn7TZYM6zvzvhaonjDPpSRyiylXpeliP7yn4G8jHPZBP+nwO+tChQ57CGV08Hpe5vEEB3dAi/GIbRyaYuZA2t3OUwsNTwIYj+OKKh407j/uh7S3s1cMqpDDJFPXA5AGPB7sUgN6CQMLzpJmH5/j1g0ed/MHpcb5+8Ui6NriO82uLDx59hMfqws197Yw6PNqeVjjy8zHOlZWh95P34AaJuIBmbfPqT0XXiV2O68jbqPLL4zG/GrjheTrOg+fR7gW/e1grK994CROvOJN0eYKOx3TTqXiv/5kSdJxXetg4BONVmplHD/sdHxbv52606fM56MWLF8OUKVNkyGbWrFlQWVkpQ+nohA+eq4JDl34G61OrpAlqIhQ6douaCmvRzJPFymuck0RzS3N5lmbby83wHu6gE7h6cAzMfx1NUfkx7aJ5e97cMnn+cjN/zcx9rmEdnN5wLI+7JnnUiW3auTB35/tYGWwCbX6d9/08eGpahteNb4q/D2It9jWfVyxm9MdMewrmnXoPmtUcuLy+K9S9YbYBzkHztnmwo8brLM/Bbr6rmHHNH1vruA68TrgAyb6c+88Kdt9bvzlx/U+3J3kIGfPMWseGHlPLNwGcSoKdQ+vXyh2wkPWJPn0j7p+tdhnj5sMK4x7jsP5Ec2lfTT+FRTcF6y4I3Ywdziyce7za7BVngvF6m3W/mdZTxjyzF9r/FaCWlbvq3f4xFx2JRWKrV6+WPkFBQQGsWrVKhtKTnLkc/r4hDutrS0VERxJuCF9O4BeV3SRlTVleVFxcJr19BwoJ5+IW/qD7W1IufuqG5N9sIZQv+HzutmbWGkQIroyFZ1qmwsKd9vx699n32KBjRWa7Op1aB9P+GIOz7Wo3KNE3FlwInIb3zsqe43WUaQLW2Qa+MM9nceG5nQvggi5gLHCbSe3hlnbnqn4MX/CnnSfuOBUacV1OvzzNPp65Bew+76/gc8bPhQX7INP8Qc7M54VXe73iTPzisR49zQxnA1e2fguwlZUT9cGaIhICuqSkBFauXClDwIXzqFGjZMifydWT+HaQ1iIxRlfbJYAtMz0Xc/QEFGin/9IcrdW8YUEhwf7VV9s/Mv4+t6UJisUVunaTF8aVwVNqBTlfUZ6h8AwB1zb5IKAbmv8CPpqrD1z7ZXqbtkiMDQEhaWjhqOmJe8G7DrsNQstzlidhWvoCOObxoMD3NhewvjlmPdjaW9jARqYOHNB6sA5g51n7PI9nsiZd3LO4Had1vHJ99K5rT4WI+m36uXQEpfuh95sZ9ovPN3guej1mOFuS7ac1K2L/IDKvWVVXV8OMGTNg7ty5MHv2bBmbnsLyJ2BEwx6IH+kUER2nIL74IsTmSG3aQmokffG6jGHytD524gIfzPhD3M0f7LkEhQR/SV/7kbW3n4UdlbYmyM2L2xbA7nSrlfkqVvuYzBkD8/+F9QbTLrngKs/iQRrUBq7h1sO+NbWw7ieZDgCkGb7avgao5bo04McWwg5ggxs2yHgPPLRj2Ybmz9FKsAnKzGkD1ByrwWfaAwcEujWD3Re/zVCD5quybZM4f3UsK81SafK5vyfhcpK1ULfqsLoy0qDlQOnl2uBX7viURX7NmrkQIs7fp9MFgXnMNuhxYdqn8mUDHqc7v7gw6O3E43rSrn6PnIuOBJcvX059++23MhQS40MlatGYE7FApScLBHwXGKjFMKbTF+ToebAMDLvKytciMVGua+EMw3VOrnPxaIuRx7k4Sj9WOtfCJL9roc7fdB4LwvzaoJDpXuccBr4QSZXvdc0Z+sIlT2Qb3AuT/M5T62vj/Hadwz6z+0HVbTq9Lsc5sGvAj8likZgqJ+MFVvwc0i9Uc54HO79z2oI57Xj9PnWdh9FX6Hp7kRiWnY6gdES1PZ0Lg57PPCZMGV55go4Le0y6csLkT3d8GPD+y9c9kC/oU59hwVE4zk3SJz6jD14r1FD75F3qAQbvy3rYdLw9jwsI+y9Kw/NCaX1BmiuSrhwkKF2h8nnlD1uGAvMrMjkOyaYulV/V29P2m5zbWQz7is/2m/lnhAR0WNAsyVfcqsVDRDRBs+wCABIoOUB9x3gTDXaIfk7/fC5EZg468oybD1t3AqybWdw3c9lEeqwVwbgy+qz7R2iuGHa5Pv6EadTg87ZMOAN+9pSEM9FfUWt7xMLL/jZoJw2aIAiCICIIadAEQRAEEUFIQBMEQRBEBCEBTRAEQRARhAQ0QRAEQUQQEtAEQRAEEUFIQBMEQRBEBCEB3XEK3hhSBW+o73mnoevIJtj+3CnokuFccG1XKXz5+GtwzfA7SUDH435pOaLrOLSxOtriV2VE5vi3v3cQ9SvXd+3wRfaxamNHQsZnQuI1+1jdTxDEgIMEdBQomwDDpNfhVyTehztL6+D+sgNwO5uHMRcMa+FyLkcWmZLnNtyKr4XrrXUw9uMEPMLcyKUH4Pr643BLpkeCwmoo4e074L7GGVEO91hfs9P9BEEMJEhAF1XCL1Jx+MWisTKidxlWUi59Tr/OtQ/ZA31WNTxQUQ53PsyTuiSFR0nVgzIic0a/hMJnI4yW4d4jAde3NsGwF6phuIwZvbAOhjbXwfWBpl2Om2D/aHU/QRADjkH8+07A0SFVsF06bxN3J3zwnJ3n0OKLMl6nZ9tEDq/aDY9sF4JF99sk4PZBoSUNj5UAHHzfbbo1TKeWeVfFP10Hd6EJvn3azmObspX53IwXoGbqNheLY1RekUeVYeQNbMNVuLyehXcZkpSbb0OaqdHCAMvgPm2X0WtvYX0A3yexDmd7Ffa5pWuD0vplHtl2yxnHOM3sGZqfPc6Zl6fXwQdSu2FcoeEnCGLAMYgFdCk8yzTn9an9UFojoxygcF4OiUdfZXkwXxyWHJ4k03oRFD5lFfAAPoRLn4RhYJi5UQAy4XfvPmHaFU5qscqkepJpk1AO95+089iacikU8bhGuL9MRmkMr3rRXacUiAWyDD6wwDL2LeNhB4FteBDGvcCOcww8mDB88wAMrX0+vDZuTQ0IYXyzpBFGLgW42/YViyuFkbXlcLexSTN5X4VvWFjU4dUGYbmApS9KAcjybLfbLs5nGYx8SRsVMAF7e5adZyyr886KkIMMgiAIA7KQ+dHxKbQ3VMGcWu0B7MkYmP86bqqenw0FUEgMrSiXWnUp3MeEjm7m5pri0gNQFNTMrPGoE9uUifAMwhx4dDXBP5rL4cfTMzS3cw30D3APGwSoAcjQkof5/+HTK2BocyN8o+bAeR32IMM9+BGWi/sXenUsGwQ83Qg/PmmY80s3Oq4DrxPa4Lu+nPsnCKLfQgLaj44k3JDevgOFBMC9MVtQ8Xnq1lapCV6F71ptIZQv+HyupV0KwZWx8EyL0HDVIODWJ41s0KE015A010HnmxNgrGXyFX1jwTT5gqVMKH8izfK8jic1Aetsg8NyYXBt1zL4vrbOo33O6QJh1icIgsgOEtBRhpuSmfa6wn7od25tYsJIaYIPwo8mKDNuHilkAlmtIMc2ZSo8Q8C1TT4IQNMz+GiuPnDtlw1etEViAF/BD4YWPnrWMmnm9q7DboOwEjjLkzAt/TrTtN2L6XCOehnrmwOGGZwgCCI76Pnhx4yZEIM4XPxIBPEd6HwsEkuHmAPVHvjc4VyxrQmi0IGDy9IvRiqcAPeCfUzmiDla1C654JqVhT09qA1cwz0AN9fXwbcTMh0ASDO8Nt+LWq5LAy59Hu4HNrhJsHaAh3Ys23A7gVYC56IzDs73rwDnvLMFDgh0awYT2L/LUIPmq7Jtkzh/deyg8BMEMfgYvPtBf7QXts+My4DGlldhvZp31vPUrIYlG5JwaFsMlrxdCfazHQX0NFh3ahMcy+k8NGpkFfDDCwnX/DI+uDsbK2CsWvGNc68rmDC3WAYjzdedjDxDaxuFFug6VoIDA4cgQvMtCr06u16OaOe3TDg5wQVhxgpjvzYoZPqwfe5zDgOueLYEmqudAt53+EqWXx2yDa62+Z6n1tfG+Q3bx/wrcE5c9IOq20Svy3EO7BqMLfkDdLa9aFwLgiAGA4NXQBPRgws4pqH2ybvUBEEQ0YIENBERhIYOWWrPBEEQAw0S0ETfIt/jxrlat1mZoaV742FKJwiCGACQgCYIgiCICEKruAmCIAgigpCAJgiCIIgIQgKaIAiCICIICehBBn6NTMcM++GXL+zxSCZ5dfC4MC4smeRVeB2TTTkEQRBhoUVigwwUKvhFMoUZ9sJPEOFxXml+5el1+ZWJmMeHbWNQHp1c5c+0HIIgiLCQgB5EZCNkzDQ97Of3QqV75Qt7bDr88mB8pviVo+KDygxqK0EQRBhIQPd35HvCgO8QT2+y/eb7xIx0QixToZLpMaaA8/L7gXnC4FVOT9qJmHWbZQWXLz8RCvjp0XL4xvJ7bMRBEAShQQK6vyMF9L34Ba5xmt+QaUGCxC/dFFBh8BNieh1+5fq1wSvei7B5MykT8cqvx/mXJwX0BPy2+cOaP/N+JQhicEGLxPo7fJcoie7XCCOMMB3zeYFpYZ2JXjf+V3XoccrlC6zTdOniw4B5w7VZbAkq0P0EQRDpGbwaNO5UhTtT4Q5V+o5Vjp2qOuGD55ZDokEGYRKUJuthdhHzyuNLH90Dic0AIw6/CsXHX+F5Yy1xeHaGOMLcNcuRpvh8NxRX18O8nWdh7zNjZGRuUIIkSPgoYeMneMIenwl62/T/XgTVr2OW4VVu2DhErxvTvdridRxBEESPQAE9KGnZk9oGlaltNfFUJ4/4ItXAwvsPX+EhpPPwnlRjUgYY57do+eXxmL/z8Ebub2iRebZ8wfOLPBvtMpLx1H6Zz8G5Xanx48enVp7okhH549L0KdJn4xVnki5P0PGYbjoV7/U/U4KO80oPG4dgvEoz8+hhv+MJgiCyYZCbuKtgjqUxl8KkLQA3Ll3hIaRw0SqhLUsmz6kCaEiC3E+fUQXTF40VXqZ9z2KaceHESSLMuHAmzjTrX9tlFFXCdFZH8oyhbT22Ftrb23OuPeca1By9XBCoXequL/Bqs1ecCcbrbdb9ZhpBEEQuoTnodHScgjeGVMF25TRTdTCd0HWeCfzFy+3jmTuzWSb3Q5SA9XJhyVSoKeGZzpn5vPBqr1eciV881qOnmWGCIIieQgLalwQcje0BOLwf1qfiwrUwDTo0Y6HwUZyb1o5XrjZY68wHPRUiSgD6uXQEpfuB7VXODPvF5xs8F70eM0wQBJELSED70dEBN9m/ghJpwkaBnZEGLUziNxb/Hj7okBF+4CKx4mJY9W63jMg9uRAiSgB6uSAwj9kGPS5M+1S+bMDjdOcXFwa9nXhcT9pFEAThBwloP4oqoerwJEjOVObpP8OoltUwQiaHYsYqpnVPhETMNnGjO/qRTO8llBDpKUqQebkwmIIM/apd+RZyWL7u/OIyoTfbTxDE4IM+VDLA0YWIiRIoYYRTunKQoHSFyueVP2wZCsyvyOQ4JJu6VH5Vb0/bTxAEkQ4S0ARBEAQRQcjETRAEQRARhAQ0QRAEQUQQEtAEQRAEEUFIQBMEQRBEBCEBTRAEQRARhFZxEwRB5BD86BB+Wz8T/I7JpKxs6kXwuDDksx1ex2R7PgMJEtAEQRA5JhPh4icg8XivNL9y9Tr9ykTM48O0NUwenVzlz7ScgQYJ6AzofncVTHv5NEDlDjj7+nyI9t5TBEH0BihEwmIKG1MA6WE/vxcq3Stf2GPT4ZcH4zPFrxwVH1RmUFuddMOJNdNg3Snm3XAM2l+eKqL7Cyig+z1qb2e1D3M++Pqd1MrxK1PvfC3DJjw93J7OXSdWpsb/8p1ULnd//mzH+NT48btSnxl+J5+ldrE2eqfliAz6wQ//9vcWXal3foltSHO9fVF9bLtd52SSRJyf5naYZ2qUYabLPnaUkWl/yT3Iedt0P+FEv58zuLexP3tCpsfr+f38fmCeMM4Lv3g/zPx6+V5lecU5kb9V/jzV/SbiN9Xf7vF+v0jswtYq2H4mBqU1MiJfXEnC6cqnoGycDEeRyhjEpNfhV3zeDPUbdsCOynpo/lzGZcLlE7CqeBWcuCzDfUG+28DLrwWYu0lGZMpUWMtG+DjK5+74Jqiv3g3nZCoy9WUtvf0YbNq2AHZr1+PczgUAx53p7o1UNsExqwx0a1nNmTIPYg9Jr8NPmEyO2fYy3d9TUFv0ckFpOhiH94BKU34VVn4V9sK+j/wdYpah4k386jLz62WbaViGikvXds5PYrZFU/dbTIWyDUxeJPO3IVE+6FMBXVdXF+hqa9nD0o+P9sInE/fD+tqfyoj80Z28IH0+jJsPe9nNtPeZvjF8x4rnSZ/Tr3OuqR42lc+HsrnzoL5JFxk5JAf9IARYNgKnp3TDid8mYUX7XpjvGt1kyUMxJvouQNJ3QMEGUpXOBwee/9rHZID1wsKd8+D0X5pZ63IIb5dE9xNOxsVgsvQ6/DlECakwzkQXYvhfCTI9Trl8gXWaLl18GDBvuDaPgdhPpNfhHyBITbpPuHDhQmru3Lm+rqqqKtXR0SFzp+NKqrEmnYlbmgx7YFb2N0s7zZHe5i9lMtWcqyyVJ1+mXWynNNlyk6ZHPS7TqczjaVIVzj7f9P3A+89VpzhG5RV5VBlG3sA2yP4zzcF+5xoEP87HxC1NwpZzmahtAqcz+HmlN6W7yuDHpDknbB/m19uZrg35IFQbzN+F1g/y+HfkdMDKE59ZeR1mSr18M00h83j/NvMD1pcJ+jl4uWxQx5n/vVD1hHEmPYlDVLkqXQ/r8T0Fp5Z68x7IBX0+B33o0CFP4YwuHo/LXEHkX0AHX1zxsHHncQsO74d2ngW0emDygOgPx8NMCsC0czQhhIl/P3jUyR+cHufrF4+ka4PrOL+2hICX5VUPOw9dIHv1m4wTDxev81DXWri0fY71sTyOc3CU71EGbzuLN653Vv2QLSHa0HVil6N/+dy8yi+Px/xq4IbnyPOo/jevkde1QLSy8gU/1wCXjnTpYY41nYr3+p8pQcd5pYeNQzBepZl59LDf8WEJHCxHkD6fg168eDFMmTJFhmxmzZoFlZWVMtRT5LxgFiuvceU2mluay7M0215uhvdObYJjgasHx8D819EUlR/TLpq3580tk+cv5mN0M/e5hnVwesMxzbSaazzqxDbtXJi7832sDDaBNr/O+34ePDUtl9MO7F7Sr+W4MnjKMFErMz83LbbEYB+7f/Q5ZvtaozsLsT8WQ/FO7ykHnI+uZ2e1Qr/39PLR8Xlusw52z1n3u+j70+1JHuo90rdhzDNrYb62pmNq+SaAU0mwc2jnXbkDFrJ7U5++EffPVrsM1i8rjHuM89ha3k/5nH6yroV0fnHp0E3Bugsi03rygVebveJMMF5vs+4303rKmGf2Qvu/AtSyct1rOqJJJBaJrV69WvoEBQUFsGrVKhnqW/hFZTdJWVOWFxUXl0lv33EOmrc5F7fwB93fknJesxuSfwOYV5yriVdvptbsgHnbmuWCKWxT7oUnzteqB3T32ffYoGOFQwjkgnM79QePfIXDDz+hYcGE9b8wwWT1iw3Ws4D10Y6WgEHbYwthhzlI6A/wBXlaX1bXy4QwiHv29MvTtGuB/SWT+yH4nPFzYcE+yDR/kDPzeeHVXq84E794rEdPM8PZwJWt3wJsZeX01VqhTImEgC4pKYGVK1fKEHDhPGrUKBmKBijQcr5Qp7fA1dvsH2pZ6kfG3+c+9R4088VLYnFF3jUsrm1KDZevKM+98Bwz7Sk5COiG5r8A7KjJrT0Cf+QLtukrqM9y4RhE4ODHWHUv6kHhvDdEHzGtM90gIZKcg90z1wHsPCv7kbnjmaycF/fsPP145frbu64S9dv0c+kISvdD7zcz7Befb/Bc9HrMcLYk209rVsT+QWRes6quroYZM2bA3LlzYfbs2TI2V7CHAd7ka070voA1zK7Wx05c4Av1+EN0vpKTC9AUyF/S135kQrCchvfOih7h5kXjdR8XfBWrfUzmCG0RtUmxojyLB2lQG7jGWg/71tTCup/kfgCAP3JdmHa/y+pJJxw/380Frb+lgN2bTHN0PDjYMXiPbDoeRjijpu1hBs8J8neTh3sSLicB34uwrTqiHzIB79nTL9cGv3LH+hMf8lE3azp/n04XBOYxBZkeF0bIqXzZgMfpzi8uDHo78bietKu/ExkBjaDmnJFpu+MUvDGkCrYPWQ6JBhbe/Arzs/Bzp6BL5Mg/8sevTJ2Wyc2aU5wKa+UcIcZP+8tTcDYjTaGnCFOgWxiO4a9bWVYBnKfT2imc+WAW56KbFa2HXmA/SHDAwgYCC/4m5hRt1ACFOf6grocFvDzznec0bZDwB/cpJuCyGABY5mvehtOwbqYIq4HL1JePwaZT62CarHta+wo4tkGkcax+UOUA07Z1QauEnnLinWfb5GYLKue10OaYjToWAA6+8rF2Qcwb47XYl2vhxgZSW3E6wjrHfRA7viOz1734PTvZukbKpR1kRhj9HEwXBlOQoV8Ju3wLOSxfd35xmdCb7Y8q9KnPsOBD8Y8x+sRnfwCvFReMffEu9QCD9yXTz9kgIn8LCPsv2QgNL2GlCyMvgtIVKp9X/rBlKDC/IpPjkGzqUvlVvT1tvwkOvvcVn+03888ICeiw4IKWme/BU6HmBIm+AzVUoZWSQOkp6jvGOOdOgx2iP9M/nwuRMnFHGm6SA2FO64u5bCI91orgBXBh51n3j9BcMexyffwJ06jBzehMOMMOOEvCmei3qKmzBVCf19dI8wNp0ARBEAQRQUiDJgiCIIgIQgKaIAiCICIICWiCIAiCiCAkoAmCIAgigpCAJgiCIIgIQgKaIAiCICIICWj5udA3jnTKCH+6jmzK+WdEr+0qhS8ffw2uGX4nCeh43C8tR3QdhzZWR1v8qozIHP/29xZX4fJ6bMNauJzxRVJ9bLuOhEySiPPT3C4jg1mGmS772FFGpv2VeI0fx9um+wmCGHCQgI4CZRNgmPQ6/IrE+3BnaR3cX3YAbmfzMOaCIRuhlUPy3QZefh1AxTIZkSmlUPRxAh5Rbt8yuLPCKTxHv6Slf3wAhh1c5hCO13axuvc5090DnmUw0ioD3UYYLVPCUw73WF+z0/0EQQwkSEAXVcIvUnH4xaKxMqJ3GVZSLn1Ov861D9nDflY1PFBRDnc+zJO6VFgNJUxglFQ9KCMyRwiwbAROT2Ga8+9aoeDj3bjZVW4YN4H9ONrgO98BxcNwTxnA90lbAOP5F5XKABP4I2vL4W5jE9ySMTmBt0ui+wmCGHAM4t93Ao7ynbCE8zZxd8IHz9l5Di2+KON1erZN5PCq3fDI9moYbvhtEnD7oNCShsdKAA6+7zaJukynUvNT8U/XwV1ogm+ftvPYmp3TLGtqfLfia+3yLMQxKq/Io8ow8ga2QZqlTXMwN9+GNf8+COO2hxgYSJOw5VwmaptbnzTC3bIKeKBQRph0NcE/msvhx9OzH9C4wPatPw639HZiWCZz+ECKDUSwXbqfIIiBB37qc3BzJdVYU5naf/iKDCtE/LYtX8hwKtV5eGNqW0081SnDgq7UO78cnxo/flfqMxmTU76oT1361bHUNyKQSk6fkkraTWKNOpZqNeNMeJ41qa+dDTfoTn39qymp1pPdMqzwqBPbNL0+dVUGLfzikXRtcB3n15YQ8LK86mHnsVM7Ca9+k3GXuPM6D9EukR7Q57LfHOfgKN+jDN52Fm9c76z6gSCIfg9ZyPzo+BTaG6pgTq1ls/RhDMx/Hfc7zc+GAmjeHlpRLrXqUrhvKTjM3NfeYprp0gOaaTXXeNSJbap9Pnem7NInYRho8+v50E5xjvklrZMKWfmGiVqZ+fnc8MkJcJNpsM4FWKipq7njRrjnTX8tHOej78AyKNCnDPTy0fF5brOOZTDSsqKIvr/b9hUPEQQxuCAB7UdHEm5Ib9+B5m2Ae2P2Q57PU7e2SrPnVfiulV3Ekod5KF+MXlgHQy3TujC551p44nytGgRw8/LSF3NuunWuwq6Ab5tlghdMmBYYAxMnTFi/sMxzygHruc766P6TAWb30ufhfnOQQBAEISEBHWVw9Tb7h1qWEiydW5sAmhvhG7546UH40YRe0LC4tik1XL6iPPfCc/j0CjkIuArfNALcvzC3JgGcJ79+UF9B3ciFYxCBgx9j1b2oB4VzmLnhr+CHdIMEgiAGNSSg/ZgxE2IQh4sfiSC+A52PRWLpQFMyLD1gm0QtwdIE//hEaF2jZ6EW53zdx0XhBLgX7GMyR2iLqE2KFeVZCM+gNnCN9QDcXF8H307I/QDgThsb2GjC9Fac1ZNOOCZe44LW31KQgI4V+vQDgx2DA6hh+8It3PI0gxMEQUgG737QH+2F7TPjMqCx5VVYr+ad9Tw1q2HJhiQc2haDJW9Xgv38RQE9Ddad2gTHcjoPjaubK+CHF/RXdwSopXU2VsBYNVeJq36ZsLBBTdEwrxp5htY2ileqXMdKcGCgz9nyldtMoJTV2fVyRDvdws5Di/Rrg0KmD9vnPucghFlZBjTssmT7eSyDnd9I1k83S/z6wexD43iGs53udIWVz6zD7GOeDo56+XmBeS0IghgMDF4BTUQPDwFFEAQxWCEBTUQEoYHil7gy1Z4JgiAGIiSgib4FP2TCP2LiYfJGtHRvwi7IIgiC6F+QgCYIgiCICEKruAmCIAgigpCAJgiCIIgIQgKaIAiCICIIzUEPQvCLZPjRk0zwOyaTsrKpF8HjwpDPdngdk+35EARBhIEE9CAlE+HiJyDxeK80v3L1Ov3KRMzjw7Q1TB6dXOXPtByCIIiwkIAeBKAQCYspbEwBpIf9/F6odK98YY9Nh18ejM8Uv3JUfFCZQW0lCIIIAwno/o58TxjwHeLpTbY/4PvOYYReOjI93hRwXn4/ME8YvMrpSTsRs26zrODy5adQAT+RWg7fWH79c6kEQRBuSED3d6SAvhe/wDVO8wfItLCCyxRQYfATYnqdfuV6tSlsW5GweTMpE/HKr8f5lycF9AT8nvbDmj/zfiUIYnBBq7j7O3yXKInuzyEoeMI6E11w4X8MK7/6r1y+wDpNly4+DJg3XJvFlqAC3U8QBJGewatB405VuDMV7lCl71jl2KmqEz54bjkkGmQQJkFpsh5mFzGvPL700T2Q2Aww4vCrUHz8FZ431hKHZ2eII8xdsxxpis93Q3F1PczbeRb2PjNGRuaX8AJGECS8shGwqg3mfy+C6tcxy/AqN2wcoteN6V5t8TqOIAiiJwxuDbphj9g+MhWH9alXIcbC8SOdMhGg68hxgG2YJtycLRchseEUdMl0PL594n5YcngS3Fj8Cvx9A+YBSJ6RD2sunC8xoS7LSK6GmzOr4KjcY7o3QaGiO7+4dKAQ8nJBmPWEqcvEq17lzPR8gWVj28261P9szosgCMKPQW7iroI5lsZcCpOYcL1x6QoPIYWLVgltWTJ5ThUTyklbQLPjpy8aK7xM+57FNOPCiZNEmHHhTJxp1r+2yyiqhOm6AFc8thba29vzqj3rQkUXLGZcOnQBq7sgMq0nH3i12SvOBOP1Nut+M40gCCKX0Bx0OjpOwRtDqmC7cpqpOphO6DrPBP7i5fbxzJ3ZLJP7IUrAermwZCrUlPBM58x8Xni11yvOxC8e69HTzDBBEERPIQHtSwKOxvYAHN5vmbjXtzANOjRjofBRnJvWjleuNljrjCK6EPRy6QhK90MJTyX89LBffL7Bc9HrMcMEQRC5gAS0Hx0dcJP9KyiRJmwU2Blp0MIkfmPx7+GDDhnhBy4SKy6GVe92y4hoogtB0wWBeUxBpseFEXIqXzbgcbrziwuD3k48riftIgiC8IMEtB9FlVB1eBIkZyrz9J9hVMtqGCGTQzFjFdO6J0IiZpu40fXFIrFcoAsz04XBFGToV8Iu30IOy9edX1wm9Gb7CYIYfNCHSgY42QgNL2GlCyMvgtIVKp9X/rBlKDC/IpPjkGzqUvlVvT1tP0EQRDpIQBMEQRBEBCETN0EQBEFEEBLQBEEQBBFBSEATBEEQRAQhAU0QBEEQEYQENEEQBEFEEBLQBEEQBBFBSEATBEEQRAQhAU0QBEEQEYQENEEQBEFEEBLQBEEQBBFBSEATBEEQRAQhAU0QBEEQEYQENEEQBEFEEBLQBEEQBBFBSEATBEEQRAQhAU0QBEEQEYQENEEQBEFEEBLQBEEQBBFBSEATBEEQRAQhAU0QBEEQEYQENEEQBEFEDoD/HyCppmKFyfomAAAAAElFTkSuQmCC;" vertex="1" parent="1">
          <mxGeometry x="811" y="181" width="376" height="263.51" as="geometry" />
        </mxCell>
        <mxCell id="A4Z1KR2vAiBidAgtDhCJ-1" value="&lt;h1&gt;前端&lt;/h1&gt;" style="rounded=0;whiteSpace=wrap;html=1;" vertex="1" parent="1">
          <mxGeometry x="225" y="65" width="37" height="621" as="geometry" />
        </mxCell>
        <mxCell id="A4Z1KR2vAiBidAgtDhCJ-2" value="&lt;h1&gt;服务器&lt;/h1&gt;" style="rounded=0;whiteSpace=wrap;html=1;" vertex="1" parent="1">
          <mxGeometry x="787" y="65" width="37" height="621" as="geometry" />
        </mxCell>
        <mxCell id="A4Z1KR2vAiBidAgtDhCJ-3" value="" style="endArrow=classic;html=1;rounded=0;entryX=0.973;entryY=0.203;entryDx=0;entryDy=0;entryPerimeter=0;exitX=0;exitY=0.06;exitDx=0;exitDy=0;exitPerimeter=0;" edge="1" parent="1" source="A4Z1KR2vAiBidAgtDhCJ-2" target="A4Z1KR2vAiBidAgtDhCJ-1">
          <mxGeometry width="50" height="50" relative="1" as="geometry">
            <mxPoint x="786" y="107" as="sourcePoint" />
            <mxPoint x="635" y="259" as="targetPoint" />
          </mxGeometry>
        </mxCell>
        <mxCell id="A4Z1KR2vAiBidAgtDhCJ-4" value="拉取审批数据" style="edgeLabel;html=1;align=center;verticalAlign=middle;resizable=0;points=[];fontSize=17;" vertex="1" connectable="0" parent="A4Z1KR2vAiBidAgtDhCJ-3">
          <mxGeometry x="-0.0171" y="-3" relative="1" as="geometry">
            <mxPoint x="1" as="offset" />
          </mxGeometry>
        </mxCell>
        <mxCell id="A4Z1KR2vAiBidAgtDhCJ-5" value="" style="endArrow=classic;html=1;rounded=0;entryX=0;entryY=0.364;entryDx=0;entryDy=0;entryPerimeter=0;" edge="1" parent="1" target="A4Z1KR2vAiBidAgtDhCJ-2">
          <mxGeometry width="50" height="50" relative="1" as="geometry">
            <mxPoint x="260" y="193" as="sourcePoint" />
            <mxPoint x="310" y="143" as="targetPoint" />
          </mxGeometry>
        </mxCell>
        <mxCell id="A4Z1KR2vAiBidAgtDhCJ-6" value="用户审批通过" style="edgeLabel;html=1;align=center;verticalAlign=middle;resizable=0;points=[];fontSize=17;" vertex="1" connectable="0" parent="A4Z1KR2vAiBidAgtDhCJ-5">
          <mxGeometry x="-0.0809" y="-1" relative="1" as="geometry">
            <mxPoint as="offset" />
          </mxGeometry>
        </mxCell>
        <mxCell id="A4Z1KR2vAiBidAgtDhCJ-7" value="" style="endArrow=classic;html=1;rounded=0;exitX=0.054;exitY=0.374;exitDx=0;exitDy=0;exitPerimeter=0;entryX=0.973;entryY=0.546;entryDx=0;entryDy=0;entryPerimeter=0;" edge="1" parent="1" source="A4Z1KR2vAiBidAgtDhCJ-2" target="A4Z1KR2vAiBidAgtDhCJ-1">
          <mxGeometry width="50" height="50" relative="1" as="geometry">
            <mxPoint x="630" y="394" as="sourcePoint" />
            <mxPoint x="680" y="344" as="targetPoint" />
          </mxGeometry>
        </mxCell>
        <mxCell id="A4Z1KR2vAiBidAgtDhCJ-8" value="在手动选择节点，返回需要选择的节点名称列表" style="edgeLabel;html=1;align=center;verticalAlign=middle;resizable=0;points=[];fontSize=17;" vertex="1" connectable="0" parent="A4Z1KR2vAiBidAgtDhCJ-7">
          <mxGeometry x="0.0141" y="4" relative="1" as="geometry">
            <mxPoint as="offset" />
          </mxGeometry>
        </mxCell>
        <mxCell id="A4Z1KR2vAiBidAgtDhCJ-9" value="" style="endArrow=classic;html=1;rounded=0;exitX=1.027;exitY=0.548;exitDx=0;exitDy=0;exitPerimeter=0;entryX=0.054;entryY=0.713;entryDx=0;entryDy=0;entryPerimeter=0;" edge="1" parent="1" source="A4Z1KR2vAiBidAgtDhCJ-1" target="A4Z1KR2vAiBidAgtDhCJ-2">
          <mxGeometry width="50" height="50" relative="1" as="geometry">
            <mxPoint x="481" y="530" as="sourcePoint" />
            <mxPoint x="531" y="480" as="targetPoint" />
          </mxGeometry>
        </mxCell>
        <mxCell id="A4Z1KR2vAiBidAgtDhCJ-10" value="返回选择的节点ID" style="edgeLabel;html=1;align=center;verticalAlign=middle;resizable=0;points=[];fontSize=17;" vertex="1" connectable="0" parent="A4Z1KR2vAiBidAgtDhCJ-9">
          <mxGeometry x="0.0369" y="-4" relative="1" as="geometry">
            <mxPoint as="offset" />
          </mxGeometry>
        </mxCell>
        <mxCell id="A4Z1KR2vAiBidAgtDhCJ-14" value="" style="shape=image;verticalLabelPosition=bottom;labelBackgroundColor=default;verticalAlign=top;aspect=fixed;imageAspect=0;image=data:image/png,iVBORw0KGgoAAAANSUhEUgAAAS8AAADnCAYAAABPEtC1AAAAAXNSR0IArs4c6QAAAARnQU1BAACxjwv8YQUAAAAJcEhZcwAADsMAAA7DAcdvqGQAAEC3SURBVHhe7Z0NcFXVtfhXdXxUBwJPJEhJhgR9llejeTICkmmY0RSLj1BfHFMGtPhBRSgo8tF50z8NplDa6TyEPx8WBotaVBxfHKIlPmlp6kzTIVItJZX2UYtJ/nODkAQcBMaWOvX+1/46Z+99Pm9yb7gnrB+zydnnY+999jlnnbX2Pnetz6URyAmHYGvJPbAel1Y2dsKSW8RagiCIbHCZ/Jt1Dm1GwbV8D3R2DrTg6oXXF5fAwp/1yryXQ5tLoKTETltR3AbBBHEJbP29zGaDE6/DQiyTt1Nf7jM+5y3LVefYl/LNvvLpo4g6/Po6tB2/34r7hF2LKEKuf0Bbe3+20FnnpM1mCzz7WNvjIe6j4PMTbS8pWQivn5CrBhRVv5vse97sB7Od/s8VpsWvY8lZhN8jJbkSXr2Q+jNqXJUTZd6Ed0C2TygDJj7eyYXqO5tnAMzcBO/gcmfnEvBvbW4pKx4ll8zl/oM34vffhLtaxbl2tm4CeHxSZgIYb5J7QLyAWNqzfD3cY1w3fBinLoUy1KzD6pix+R2nDJa2fy2b5xkX0VbQ2mK0Q75onfS4ezew+3XSz++S9wlLe2DlhnsyexnwB+4AFLN7zg8uWOsAvrpSrhhomOCaBG9+VbtWjSthfY0roHg/PF4Ge5ztZbB0qiuI1XOlpz3LccMXiyFrV5z1U80R2IT3dY6EVwpSb8hFwp8xxVAmF43lrDEK7n56O9w9RmbH3A0L8EZa35KBxnDLEuMhnli7CWa88SYccG7mHbAehf9spVmrOn5y8V5MgZxIwRGYAXdNyvwxSnXusx7AYiieKRdjgYLzJ8Uo/JZAhVxjwl40KVjQiderWK4acMQza7xAry3GHlP0woGf78MX0Wz3JX/LbNg0cz3sCBLiKGh2bJgBm2qzpxYcalgK+5Yv4Pe1Ibzq6+sjU10dvh36iFI5Jz2ON8MbS2GSo1paarJUC51kq+iW+h9uZvRRFTfaIMbuPMh9MnoDO0yEJfhmEia1vqwTocYb/TAJlvbhhWGr+vE1M3kzf7XCfaj5zYp/38AHQayJhdGGGt+eDicL/RAGF9qoaan7sPdndVjHSlgQW4PE6/v03SHaB3vRxND8refCc62s5yKz+3IizEatcH2NKpcJVFdQKEzrYBQUfxFgX6f/1eaCZuZdUKEd772nM3kuD8EBvL8ci44N2CuOHDmS/upXvxqYqqur011dXXLvED58Lf3ouC3p38msTc/rj6bHfeu1dI/Mm/wuvWWTdiQva1x6yyGZZ9uNvE1P+rVvjUs/+jorXSyP08vTCGzHoS3pceMeTb/2ocwH1cn3U3Vlm/C2e/tFP28fPPsj2H49z/sj5Lr9bhO2x+kvUZ863jmW1+P2HT8G63WS1d9mmQjv0+A2eIjoB9Euqw08uXV49/GrX14Ptj3w3o0mqo+9957EXm+ft6cfxD2b8b0py2HnaR/ruVZqX9971P+Z6Xl9i3FunjJDYWW6fWBoXjfeeCPMmzdP5rwsXLgQxo4dK3N+yAHJ7wOs7fMYEr6lNFMFxlTAXaiiH0mZb5Fo8+cAtgXfwl/cY5g+cTjUsh7V47XGG8cXZlahxpSTMZzfv8Lf7nsC2t77zpv4VtwTczJEvkV1E4+B7dePHzXpLjQTjkDK702Ib/172Fvvm7YGId6kkzoXYF+oa14GxbLvzHGQd2AToMbtjJuxNymaFd8N00rCieqHUV/bLupuRe0J/7GxEtEW9/509pGJj+0Z2jy7r+W9pM5hgAfVPfekNQzg7QehSe37+QHZ1zFgmp0aw5Tjl/rY9MTH1blLrQmf87vYmJYPniEFyaivLTGeq4mVKzPW1JWc8Yx5zZ07F26++WaZc5k2bRrMnBll6Avzp/O7AHX9mDEyTRnbDGB1iAFTtY+ferzv8aVo6vXF3haTDReb3tQRgJnFEDQEwsdhYsGEC+tDFIQe00W+bFTCG9e3VHZToznHBt5tIbG+ZhKkvonXXAnZkyn/MjhoHn1Tu1n5OFQ0nlksbRghfj/Eh5uJmhDnM+dsYoefIzPx8CGeuQ+WNrjtMGfhMGV1Qkrck/uYMNHqYC8TBe8H7ZlgiQ/P6HiGW3QBjPeCfo1ROG5nAv+NpfCKY56yc3eFfOfTFQDYrhkl9l16CF7Bur0vOsRug2eYwLonMZnmMfb71B1QHDRgv2jRIrkkKCgo4FpXbPgA9Ho4EHv8xIXdBPdswAdNdRB703lkphSSLIXNcPHZkIF9Q2aLUcVlfXgjeTm0WQoujybMhJr7OYvqS89cGLvZ5E1tapijoOKrYrZWf7tyobu8wqrLhW/PEM8sVoaadMYYAli+zIwBezHWo2Nrb52hY1yZIuqzZ215kn1RXILXwp4xZUlvBxNIxnZtQke+SIwxraiJpBMH4M03vJMgXOuClVBhvei4YLJmfNmMpon2bMuka5MVTNPzG7BXlJaWwqOPPipzwly8+uqrZa7/iAfTnbXS4W8QTeMQg6My40dYB6NZ9M5myFCAiYfSVbfZmyAXA/YR3FKBlx/Nl4Dvibi6veEAto6htCuecRAvAmYq+ZnwYnbJfWtK01LmBOJmY+aIn2nMzUx8M9ep80dBV8feuAGfyKjtzowVHxLYB2++I4+XGl4mxOmHzBAaiHpA1P3g1oHgebCJCa/GkTvYee57vC7wPubXAjWv+BMuFnJ4Rh+OEUJoBhRfK1fosJcaF0T28IrPrKTCIyBlX2eAuN7yPMXQlz9PPvlkesOGDTKXCVGD6nKgTg4M+g2OO9s2/Y7v6wweagOKKpkDi96Ba1WXWmfWrZI+iKoNzmLacsgcnHbI6YA9w+oL3ha5CdHPg7Uhqp9E0vpatl+lLYfMAVH/fsLkM6Gitpl9ZPaj70C0cTxeA54PGdD2IbQfFLxcn/oR+zz97lt7n8yuud0PKkX3tdEW63p5tvtc88zaad9vVn8Z9fv3ZdSEhDk5gmUcyvx6q3aE/jzo5MmTMHz4cLjyyivlmriINyAbCwkaSCUIgugPvmaj4tprr+2D4GIIGz2jDyIJgiAygH6YTRBEIsmh8CIIgsgdoWYjQRBEvkLCiyCIRELCiyCIRELCiyCIRELCiyCIRELCiyCIRELCiyCIRELCiyCIRELCiyCIRELCiyCIRDIAwqsNXv1cNbz6tszmkq434Fms69mXu+WKfIL1w0r4VZfMIj0vr4SN1rqLTk8jdEwph46mU+ayxukt5fABrhfpKTgt1xvIY9V+XW1yfQzONy3RypdpSwYFMKz67XMIxTpWT5mcRzRt0GWUvwRO9MhNMYl1LWKh2hJUxik4scynjb595VNGP+6HQNhvG3PL4XQDzEw3tMpsLkk1pXdiXTt3n5Qr8gnWDyvSzSmZbd2W3qDn84XuPen2yTenU4etZcXh9eljm90VpzbfnD72xJ70OZlnnNu7OH1s8uL0h91yRYbw47U6MudwOqW32+88MoWX0fdz8mK1ERH9tj59SuYjiXEt4iKOXYzn6F8/bxvfbvUB75fwNvf3fghicJmNRTPh4XQTPDxntFyRr6AWNrUJilvXwx1FclW+UDgerpCLxrKifAVc91i5zACMnF0Plx1ohnPO27gNzqwFuGrvVhhTKFcNMOebnoELFfUwQjWzsAYK7ge48HwjnJerMuX0K/Xw2f2PZO+cetrhU6iEyzUvpEOLS+VSTCKvRUxQKzr74jwY8Z0qucJGXtPvPOK9HyLJ3f0wgMJLmI8bZXLNyG741dctU4+bf5Y59fZ251ievv4GuNfILNtrNiqTTd/Pa64dWeuWsfFz273BIULbgEizNbQM5MjaVZBasw7uvU2u0Ahug2i7fW7c9LTb0S/31OVQdLANivgzoS/HpO2XKDiqYFjojapMEJUyN5e8ZShT5BSca26By6oqYSjfD+EPJ/490A4XxBpB21PG8R8sCxBu8vgh0zLpCIFp1mnmKxeoLfDJLHXuaLYt2AWX1T0AI/kOEo9Z1h/T0A/sxx/WA9j1apzeMg8u9FVwx7oforH7kV9rqYHlEGE26iZS9+4VmN+Wfo/nTqabay1Tj5t/mkll5wPxKYvjbcN7azBf25RWmqydN9uIRLYhyjyWZuNuNBe1enSi2sDzxrEBdebcPbWLbaook4+vR7OIJ49Zud4wIXzLUMfyZJslvekPn8D1vqal2KbMMccUs80+ZnLFNGWEyZS5ORbLjOPtEOfpMWszNHdj1WfD6lfH+JmAxjpm6vqZjaL9fucR536IBNvoZ14PmOalm0iFc74BxXAMejIaqD4KnS39G4jX21A2vRqgISU1ljY4unoClG+YCeoFIdrYBEeNiYboNqT2h41EHoW2uU1y2Sa6DYWVt8PwhrfgiOq3t1shBdUwwdbgchlPUgc1lzNMI3mwxtVyGGiC/HVaG1yHWtt1B5vhKqiHbm3AfWj1CuMtPnLaPEMrGlq9VR4r0oj7d8EZXeNo+yl8cgDNHM1k8iI0s+6OR7CMFVKrKIV/4vXitueZllMfQ5tgZk+L9xyj4NpaJZpawcfxiYkFHWhS4XnuQO1mAWoVWj8JU3VXPM036FqEIrS94GOitTKmQZZq10qdhzEgH3E/RILmsd4HQydXocnYcTE/lTgKH8UVXmwsK7UIYO58x6TK6uxlVxecZYKlWDfZ0LSTmzmRbSiHe9ProHj1Kme713xF4ZRqguk3bYOX1loXL2YbJq9xBeiR/U0wfHdNeHiqXMFMLm7mNHsfLuOBuwbGPIjC6cVfusLHNoWwnDD4WA7erH+XpuX5VAdAxXgYIrK+XFhQBf94EB8WJeBOtMNnYgk5Dv84AHBF8TUyH4xn/EzDNmWMGVFenxKWPmAf9DKhuEOOBbHxK3zw4cVnQJiRp+Dv7QCXlYYFeZaEXAvPzK1mGvNzCxOO7CWBgmZUdXQ/OZQ/AFdVAHya0mZ3M70fPMMI1qzsLBTqbLXUxHKIj2ljmGAxzEabwJm6cLPRaAMvQ5lk0qQLNAl9iJot5Oeg16nXIdpjtjNmG1i93HRk+2tm7UAiTYX2vb1yhYZuhiiMdWKWzTiWm04hM1Z8u23yBe/vZ+Yp80UgTEvf9hv4tDUuvI9CzFL7nBjWMdzU8jWNNcKuRSjS9GZmnF+yTT07BZp+Vp8Z117ity4QnyEC2U8XRfM68tw2+Lj2dijjJtxoKLwJ4ONjJ/k2JmVfLcbtMudLUTEMl4vZoRwmoEbTttwa+A4jqg1FRVAgF72glia1OFd7i9mG22pwz23Q9PUX4GyQ1pXLeJLsLcjefPg2LfV7I5d/BYYcqIczjhIiTTQ1gM5n2XStR5guwcjt+oAxqwPQlAwwPbhZgW3oVYPjSstxBtyvgWHYns/W1ltveAs22AzzoCATzUNRWAmfr2iBT34YMAnAz6EF/vZbV0PhZqKmrXFzGk2u4G+iIq5FKKgBbVSmnEx7mYaL5jhbRo115GPW9oNoYgKawszM3ehvavLBfb3Pou6HSISW7GqgwpRlmtcA+LBns4nzoa1BZhlr1sGyOk1XZbN0jsBiptU34KPiF+DqlByjYrN8U82xouLWJne2zmc7x6mHzdStAvAcAzA9vdARAGymb/9qmeFUu9uj2mCcg2D47p3aZxusDdo5IWym8KW5R41yQtsgEcfhfaGVZaCF58/2uBczldjYigd8gBwTjZkBSrVHmDmjP1zMlOlGYSLAh2FHFfxtQTsUyLEpu44hO/xmPJkpwR4UF2M/qw1+ZZjtQNA8HO08lKL8T622ZwY+aMuq4BN8+BRGX1htBC441PicRJqELu4+sa5FJvD2uNfBC+uTZ+By/bMHu31+dUfcD5FYdQzZgcsLnqEAHEmEC6/G2+G+/3YH9wniUmNwfaR6KYAaXhPTurRZSYK4FCHNKyloZqthrhLEJQoJL4IgEgmZjQRBJBISXgRBJBISXgRBJBISXgRBJBISXgRBJBISXgRBJBISXgPMoc0l/HeHIm2FQ3K9oBdeX6xtX/w6riEIwo8EfOfl89tIn9/7JQUmvO6BPdD5+ES5xp/eny2EST+/C955+m7IsVcugkgkidG82I+cl6WbeLpv9zHY34eoO9zFsu1HiyCIRJJIs7FwznqYnqkLG4IgBhUDJ7zYb/McD6GY+hi8QmG6cUbs47XyVVAL7mpG83Rq12EGv/D31srMOTYetfX3cgVBEBeFgRFe/EfFx7gLZGX6LdPduUhfWAWt2vZYY1rKD343/Oo5gGrn2HVQ3LANmqQb5rI6sX76GswwH19+dWAbj05X65lpOgFSU8MFKEEQF48BEF4oWDYwX+vf9nech3DPqgGhwOIxGu6o013EMK+kunfWGNy20KifB7vwCRIy6mvbeXCLJbfIFQRBXBQGQHidhI8aAApKgwLBdkPPewDDr79W5uPR03EM/78eCjWvpLrJZ3ojjYMe0xFTlCtqgiAuKgMgvK6Fq2sBznYEhQyzfdjHoRuONB5FE3Cq46JZuEV2zT5uIsaGfY4hAsGq45elFmXZTz5BENlkAITXaCirmQAfz/2vwE8b+OD76lWxw5kdWcu++6qG6dIPvq2FMWHmp3kVXj8B62n1GccS2qGr/aEwW+6vedGAPUHkBwMyYM8+bbhvNxpmekxCfbbxtoWwrLUaUlO17dZM4MdavMT97y2C+7TB9sI534by2ibYr47dUAzTd6OgsvDs59RRDvdi/W4d8+Gj5eugmG8jCCIfIU+qAwx9YU8Q2WFANC+CIIhsQ8LrYrDhHvnj6+AfZk96fJ9cRxCEH2Q2EgSRSEjzIggikZDwIggikZDwIggikZDwIggikZDwIggikZDwIggikZDwIggikZDwIggikQys8LJcNT8rPZ0qhBtmH++l1nFxvU+4WL66eMqyl1Tu5jrXnldPwYll5fDBskY4byy7nN6C66Y8BaetZYIYbAyg8EIBUrwNQIsC9PCcIAeFFkUz4WF+TP88PRRrbqanr2HeJTIUNlyIZh61KOuMHw9D5aKxrKgYD0PkorFMEIOIgRNeXV1wFiZASWWwwBK+5gcmHmNZHROETXA0Yy3uYnIN/NN4uWgsuwwprZRL5jJBDDbyYszLdOHcR9MrwiT1wIWpSWD0IFU2dw191PBL5qmHm49yux0hiXMItvYjGvbIx9rguseEE0Z9WTG0eitct7GGa2P6MkEMNnIuvBzB5HnwXSHFnBVyc661Wq7JECZcjOhD66Bg7vxQAcaDftQugmkq6EZY9CBltnLX0BMMd9Om6Yum6IZiuI9vMyMYEQSRXXIuvBzB5Hnws2ce9rS8ZUUfKodpKHw+bnzX0Hx0T637YZ0Zfi1m9KBwqmG6U2ZQBKOJsKSzEzrJySBB9Iu8MBv7S8+xo1Yw2Wp4aS6us9AH7JdJ//cuFD2IIJLEoBBePLCGEUxWJl2zCoWiBxFE0hgcwouZeBlEH/ISM3pQUREUwFHobOnPOFb/BuwJghDkgfBiWo801aY2YV5F93G/p3JnI1E7wrwau3IG5NmAOmpKZ43oQzFmHB3iRg+y98ukDoIgsgm5gSYIIpEMCrORIIhLDxJeBEEkEhJeBEEkEhJeBEEkEhJeBEEkEhJeBEEkEhJeBEEkEvrOKwM+mGL/HjKc6w62yaVgWJlx9tPRj+nL8Tr9PZ4gLhYkvDIgkwfdb1+2Li5h9ehl91f49Pd4grhYkPDKgEwe9LB9g7bFLV/tx/6GkUlZBJE0SHgpehqhY1Y9QF0zlE5ucZerr5E7ZCY0ooSCvT2uENH3CzvGbxtbFxdvuSzgRxV8AvUwemMlnHOWyVMrcXEg4aWQwuuKHW1QNEZb1p73uAKGYe+bieBQ+NWlyg1rS3/aGYwUXuN3wXWPjdWWMz8vgsgGNNuoKBwPV8hFYzlLMAGRabLRBaC9PWxbdogO/kEQA0nONS/mzualY7dD+XvboK2BeTNdBzCVubZhLqHXwx1FYj8W/GL/arHMGL57p+Efnpfj8Y5aDdN1d9K/3wolNethxuZ3YPvXsu9kWddSdGGho2+PEkBBBB3H1oeV67c+ir4eRxAXm4HRvFZvg4+Ws1iJzBfXC3B1aieU17pO/Zhg2v/eIhm4QiQjsMXb21Fwgev/ngfqsATXRYA99HqKi32cnoII2mYLQzuvYOv9UtQ2gshXBkZ46VF61nwDta3RUHiTzCsa3oIjAcEuejqOyePkitumQrFfcIxblkBnZ2dOtK5s4icoVOovTMj5laMLSJWC1qtEEPlMXox5sQhD9+0G37BojMLS61F7e0HzrPoCmp3XQ6ESZgnDT1ColAlMSGV6jKI/xxJEPpA3A/ZOiDRMPBS/J2CrG/NRmJAX12RkKG1JpbjYx+kpGzChFFYW2+YnuLJVP0EMBHk528ijAWkc2d/EB/CVcFuWdgf6DdiAfUkJLPxZ7kNbsIffL4WhCw19f7WsUhwhEiSAogg7Lm7dBJEP5IXwssPsvzT3ei14K0DZQ4sAtKAXKvU9WlD+oAsSJTjiCJEoweW3XZXJ/gYltZ0g8p0EfKTKogvNh84av08nUMgN4Iwje6ijhIb+4NuCyc77ofYJqiusHL/9+0JQ3QSRTyRAeLFI1qvgrPXdF/8ujH1eETuwLEEQg4lk/Dyo6w141g6/X0uCiyAuZei3jQRBJJK8nG0kCIKIgoQXQRCJhIQXQRCJhIQXQRCJhIQXQRCJhIQXQRCJhIQXQRCJZJAIL/YVvvm7R//fPrKfGuE2j8cK8XMj91jTJU/+wPzIl8MHyxrhvLHscnoL+43iU3DaWiaIwcag0ryKW5XXCZHuVQ4QY+C45OFeWvOc8ePdiD36sqJiPAyRi8YyQQwiLjGzcTTc8d8ooBL7s6LoIBhDSivlkrlMEIONQRKAQ/x4G1DzCtK2jPLDfhf59nbYOBX8vVXwbU0yIzQ9oz7PbzD9/Owfgq0l98D6mZvgnafvhvx2WE0Q+cvAaF55EICjrE4ce99u09FhbLjgOua2IbUIzk7Vx9VQgKLgKjBM14Fz10MQlxoDI7wGKABHCoWJO+i+0vF5nw2EN9dvu20omgmTmTDeb/q9svNeJsKSzk7oJK2LIPpFXox5ZSsAhzlgH+Aquk90Q897AB9b3lx1Mxf1Qrg3vQ6KV69ytj/7stAsCYLIPnkzYJ/fATiEpmj60ZepTveIygSYXI9mJXNdPRhcVRNEPpKXs419DsCRQ8qmV6Pm9V/xTdGiIiiQiyZswL4ESha/DrkPE0IQg5e8EF65D8DhfsTKZywbtsFLPK/MU/nxKlvHZxNR8+PbtXGz2xbCstbrNdNWJKcNbKZRW79Ruq7O5FszgiDiQwE4CIJIJHlpNpqchI8a5KJGzzHUoGqLyYc9QVyiUAAOgiASCQXgIAgikSTAbCQIgvBCwosgiERCwosgiERCwosgiERCwosgiERCwosgiERCwosgiERC33llC78PaRHbI+ygpw/9wH/q1Xh7Vj86ZsFHzrw4D0YcXAGgLY80tsuM5LK6ZiitvkbmskBPI3TMqofPZNYov+0p+GDBLrFsUAlX7d0KY7SOMNpaUQ+jN9Z44xZw2qBryjyAHW1QxJyd8DrAOO9+E1Km2aeqv0WbLsi1Avsc7X28feALE15ENjmcboCZ6YZWmc02qab0TliRbk7JfN4Svx+6d69Ib6htSnfLfDY4tfnm9LEn9qTPWcsKtq59b6/M5YLD6dTkm9OpwzLbvSfdruf9OLw+fWzy+vQpmVVlHNscdpCOVaenvCwQUOa5vYsD6mJtWpz+MPDiWm1GgssyIbORGJRc7EAk55uegQuoJY1Q7t4Ka6DgfoALz5uh6lxOwYnnd6F29oCj0fAy7t8F1z2m+4zLTy50tADc/5XMNbyedvgUNa3Lx8g8MrS4VC6FMwDCi7mjYa5lzNiKujsbZjZsXNsm/MSrfVheg++jHe/npdR2rWPuo7m9YckndmP48YjePpZ8ygjGrx+8rqoD26Bc7nCTzHXMaOzDsF3zGG2M1wZPGXYcS6sfMne4aF4Lb2AVRi+8vrgESkq2wiG5JhOGVm+F66R5pS9nBDP7prDYlypZMTCZCaVv36Lu2VNwrrkFLquqdOvEss4yk+pAu2VCSdp+Cp8cqITPT1ZmqyhjyLQIwWW0wTbPJMY+mcfxFPE/ZfI1dfsBF+ot8MmsJXCC36hoQmIduhAPRGpgOUSYDxs0U4ebCbAt/Z7IyjzbR60zTQ57f7V95+6TMp9Ov7cGjw80PU6mm2tx+xpXN7X3jzRdYptrQeaStx8ybgMjtB14nmv04+1+im6DKD/E3GvdZhwfvH9QP3ivhf9596Rf+9a49LhxW9K/k2uyCTclmUmmkmVWRpt5aO7o5pyxf2/6wyfcYx0ziO/jb0Lx9hjmoTS3DotyVTuN9nATTi/Pz2zUz020K74Z6mNyG2ajqM/pQy25Jrl3H19zXbUVU3CfmwyY2Vjcut7xflo45xvgDaChRwO6Fq6uBTjbwTSKbjjSeBSG767R/HaVw7TdE+DjxneFVoGawm9XT4DyDQEDvl3vQmcDlq+5bGYODofbQT9CgoAI3IhHfUXvB+adFRpSpvYW2YYwRsMddXoflMOENQAfHzsp84KwNhx5DjW7NeuCQ8jFDEQSiM+18GcU3P10J3R2LoGJck02GflYG1x3UKVmuArqoVuLPn76lXr4DE02PvDtSzkU6eZcIWpNFQCfpk7JFQwR1by74xGsQw1wl8I/2Tcp18oq4arZdmWokTyPPaHauQM1qwVKQ8E2/pppKPURA9vzYISjdV4DYx6cB9DeHmC62rTBX1m7vhOktWIfyLaNQJMYmIkr8+7Eh7sPT3vrAdZWQUeT20/nm5agRtcBV+3F7fwcUcNztNhgLuKY11H4SH9IDd9cIjismJ0S/rwKSs2ZKh6UQz10XSk0pbwBORz4duUdVSZrRiwqCAh7SB+WfulVGdn2Tx/ZhhjY5rUZJCQKEWhk+PXXyrxNnEAkEfBrkW/Ih9ox6U7B39vx4Sgdy3NBGObUlCo0++QGyYUFVfCPB/GBVELuRLsz86gjBOUjPkLIEhzlD8BVFS3wt9+yB1+0sU/opqvHNHaFoxiPyjJy7O+zjuMij/X3rkXzeIecXSxfwQUYvPiM2w5mShptLIculG0XR3h1dcFZmABXBwkbA10Lc+Hh0JTAKyqG4T6h0Bz4dqbZKR/4/r7wI4OAMAGmjm2thtRUn/GifhIdiCQEO74lL0Nui4UINGJrai5xA5Ekj/OpDrnEENHInQfMB6YtiM8vpEbBtDfUvATXwLCqSv5ZgzNgj/A67EFtORbmHdsaC5ejoPrHCZnVuKK4759z8DZUjIchMs+ESamuGR2M8YlCv7CELhfo5oA9jBlvCSZLe8PENOKLIry4aVJ7O5TFEl6joawGTcS5ja4WgmZi09yjULxcmkhFt0JJ7VFoWx7woPPtKAisSYAw7CAgHrhAzC2+beCBPfzNVy7QdQ0UhVlmmpc0I1evCtQqMw5EYsNjbjbBUVm+cOed/QH7jJBvf32QeOQ09vafx9/wfvDZNU0InG+qNzSvoZOr4LID9dCrzCOlYVhC6vxvm+EzS8gJhAA0Zif5oP48uJLvK7Z/1twit/t9T2XTBmfYeeoTCWFwU1hpegj/xqt/A/ainzQTufwr2IdaHQjXRP3Ma4sB+EiVzWyx8P4aa9YZb+o4Hyka4foRT6h9PoM1H9o0l9Hmh5He7bo3Vrt8T0RuNsOmhfpnGG1gM3ShH2eKfgD9GF4mOPVEtkFhtcWtwzpHPL/pNW/B/mPfkP0d3QaO51wz6IvIfkD049k1WJ6ClzYUW9efCa9JsPSNlbAn6+NebCxKN/MCPor0PKz6h66WsLh/F4zA7WdLtQ9RmUmmfaQ6RH08qpDbr7DXa/h/+Kkwz2PIjma4/HlhqvLyrPoZnjZEYZSB9e8dD2dntUOB9ZEqbyf4fNZht8HvI1tPO+3z9GfAhJfxwBAEQfSTizhgTxAE0XdIeBEEkUgGwGwkCILIPqR5EQSRSEh4EQSRSEh4EQSRSEh4EQSRSEh4EQSRSEh4EQSRSEh4EQSRSEh4EQSRSAbHR6r8x8BvQUnKdHHj4vOjbIb2w2wPfj9Y7i/yh778x7GgLWfyQ1kD8eNgJ1oMwly1dK9tEZm4UVgMvD849vzY1vrBsnkOft4NwtvB29xcFRIVJwpvPyiC+sP8wbPAjB5k/3i7Dz9qZqi+CvRFr/or3o+Rs499vexrZfWD8cNqbx85BJ5v3/D7gfqARQ/i7oY1179ZJYOIOrHbwd0d666ns4DuttfjwrcvWG5/mZthzWVv3CgsOsztr+uGV5RvuO21XRl7zoMdk9l58XbabpgzwuoHRUgfh0cPEu6Sje19uF7CtfOeYNfLvMz16Q/7cJ2yg7ffzHvG6zba667axqfv+ol9fyjX1GQ2DiS6kzWPw7UswBzLadrL0OpHYAjsgr/Gd2PG3SO72kU5jKjTfUZJX0u610/p3fOTVzKoZIAQjveqYFhGmifjOPwDtQnD6V+m1ws1LuYe57rHgiIXocbz/HgYjRrEMLlmwImK3NPTAn/TfW8hI2fXw2WGl1ML6XOsIGvxL4UPsiEPuvc1b8MBTDKfM1Q0HO6navUqzX2w6eLYjprjcYbHzDhte2jkHmZGRu3jg9EGy1+VovdnC6GkpAS2/l6uyATutVKq5PqyDvNtZLi8DYtYY5tncWCqvl6+5vY3EubTHM0n3aEev1nxb2y/6AyzDa5ZlwH97ocwhNBmvtSFM0Js7w8toR1F+YqIALblUBTDTDZdTftE/jH6QbU3Jtwlc1TkHsspYOF4uAL8Pbzyfnqemcheb7HGPa3FCoik7ZfcpBYOGAXCWSEiNbGcE2quoYmmR5nxRAuKMgv17RHRb4La4YmiE2A29rz+aHrcuHHpLYfkimwSFbHG10QL3t/PbDy3F80UzfRRKri/yWabjaZJ6BwrzZ+giDKmCeE1RTI2G0P7QZZvtYEn2/zRt/nVL68H2953M8h7vjZ+14lhXxvPfnY/RN0/QfByxHmax9rXX7UhoA57SIGD54+ms9u33jJDYW1z+sA9lvVNfpiNty00HBUWVt7u45M+RuSeFtTOirdBQcaOD9vgaFj0IY1RX9sOnZ2dsOQWuSKLREWsiRctRoJvO9u1MWNo9QrjeO7uOCCW4OktYiDZawKwQd5yYRYp7cFxiRwRLYabIvNgRD8Gc8P74RoYs1HUPRq1Jz7ArNqi1RkVPYhrNNLLqTqHjDSGfuON3GMPA3j6gWtSABd+HV/9Co/cg9dSnbvUmnqhynF9beMfSASvx2O6hlkOV2Ibw+ID+MI1zGfgcmyn0mjzQ3jhhdID0tqRfXjgi8jIPUehbS6aerWLYFqmHlt5QJCLTVTEmgyixSi3uigIPaaLrcJrs4Y6YnaHzTzZM2DMzDBvIjN4hYV8oJybNSCCjokQjk4bMbnmUD+i5gRiRw9S5lOzeJEwEx8fYjbOckaTC6ZJhylGuK7Y8PEo1td6Hbp5LPrhM02wsGTPoHLhpG03BLB8wYVG7uHDG66gL50MnnEyDpblH77N2wa7jZ570h7KwH7v5uODaphFPit840WFfcawClLMr72KRIOCyhPcIjJyD2pOqSaYftM2eCnDsa78IDpiTTzwwZOCyztVLbYBPpSO1sFuVgt2swnBZY/JibcmWG9XFowiOKhDX4SNf7SYXGIIYBnyyxiw52M9Jqb2himLnwaI+tg1sOrAJPpC3C9MwNrb9XbwaOH6Nn2cLVbkHhMRMMQ7CcK1Lr/JEdSYuteCcR48xqOOJSCNCEY8QAcYA/ZiQqVy4IQXj4SzutUnDqGIy+jGCkRhttzSvGxCIveU1e3EWz9DASajDzlmqU+ACUW/BuwjCI9YEydaDBsIx3XMVPJ7kDwPpdAwDPjNpr2NLTxtxP2ZoHPD1Jv4R4txTR/zO6w49CVqTgRSA3FMbBlAVje/zjc9g3X4aBw5g70oUPP6YbCpyq7FZ2vrM5hwscgwco+4ViiIPEFo5USOIWAE4qWglcfvF7kcC/HCvLDAnazgwxkoKAfwI1X7Q1EtIo0lLIpb1wFMfQGuVh+d+ggTb+Set7SPVFXEIqaNsXUxPlI1ot5g21LF8NviFEy2PlJlwmvS4/tgZWNuxr24bW8IFP3jRSacgqPFBAoC7cNCcx8UKjuq4G8LVDSYYEFgfKBptNHS0JgJoEeC8YsWox/Ptj/YLsyCGLNvgvB+UPBz9f341Tze/yNauy/89gnB7geF0x92GxRmPd6Paa2PWT33i3WtovC00yzfqN/vWiJ8n3b/bZ6+xjJGVDXDGRZFPANN1a8dAyi8CIIgskeeDNgTBEFkBgkvgiASCQkvgiASCQkvgiASyefOnj1LA/YEQSQO0rwIgkgkJLwIgkgkJLwIgkgkJLwuSXpg36paqK2thVVvJu9XoATBuKQG7P/8oznQsu5OqDz7EHxRrovFO8/BT6og9DhRtszUPAQ1P73T/QlHntHz5ipY/JtKeHrdjEgXQFnlDzuhdu0+mbG480loeCRr0QJyzpFnauF7v5gBTzbMB9CW1RmI7TKjuGF+Fvv8COys/R6o3rzh4adh3V05upryus2oa4D5N8t12aR3H6z61k54X2bj3gukeWWJL/7ny/DNsy9DzbP/ItfkLz1d78MNX544sIKLcfN8aGho4Onph28QD7PMJ0lwOdww1u1DfVnBHkJ1fixl9WVRBvN5uU/DfOzKxMIEIwqu8SgYnX6achB2/kFuD6FfwutHP/pRZPrBD34g9774CAGTodY16OiBrk65SPSZwiJXYujLgxL50sm+1oXaI2p0TGs0ysb64tTVL+F19913w7vvvhuY2tra4KGHHpJ7+/FH+J+COfDKq+a4y+lXV8NPCp6DP8s8HP8FvIL7/USlB35h+PJmJhsrQxwn9tHL1Ncb5eow09DZB9OP/ig3aBj7BJQTAmtn6PF2G6zz5LA3VS7HqmT5KulvQGYK1daugn29cgUi1u2Uro6YKcO2s7/+ZYQjjrPPjZm5tav2CRdHrH1s2Winql/hjunxpI41UPvYx8aj8K51jialL8eCmUmsXc9oNct15rlb54Ep07409ud9Zp6vuH5uMupX7ZTJrFu2TT8HBq9Dv0dCrsUfDqLZOwPmRJm71j2p6uyX8JowYQLMnj1b5rw8+OCDMGZMmAOkG2EKmlnn9h7WHtIe+PPev8CwZ2dKDakHDrwI8BU0yZhZ9s2z34UvND4Hv7QE3rmHl0Lj3i9DDdvnf1FgPrwVDhwX20beu0Yc23ynWOEBheivJsvyxfHD1n0f/ucduZnzC2jZOlaUf3YTfKkG834CLgA+Jvanh+TxzLzsgBZbQFd1wJf+V7aBpZyMm/XA8fdvgMpbfW4YdpOsbYf5P5bq+4/nQ/ta96Yte6QBnrzzfdj5f8UNyISKPdYDgNu/9TKMlWUw83Df2rgCogxm4f7v/+aQe4PjkXuffR9mzNaEw/s7YfErY6XJycymffA95yFiD8ti2FnimmxPluD+vgIsx/zie74PHYyaAeuwb2/A7aJvUdCg6QTGuJX3PFjKpvbDr1+nZrpjMsbNWDv5+idRxNgU8msCvzhoCsOD+9BcngMzRrFc+LXoOR7HSyX2zcEpzvHsnlT91u8xr3vvvRduvPFGmXOpqKiAO+8MEhYuI6d+GYY1/gb+LAUNHD8MqcY74d/uVZ1YCBX/qT/EN8J1q1BYfaC9/hn6IPnYsTAM/gJnPuRbYnAj/Pt/aucw9t+guAbr+H/67X4nVDrCBNu0BM/tT8e9mpEvf4QP1v0LfOkH7nmMvHc2fAEF4geGgPwLpFojHjGpwmc+OKvegAdhSsM6eXOZsBvvBnwJONvw5p2Dp7nvoHt7lj2CwgJ2wqZnMD0LKOh0wSWYUeeWX3gX3sjQDl3W5Qqi8NZKuOH9Fjik9pdv5ynGQ4sC09F05EPU2SWEU+8haHkft2tjaGX/gTe8XiYHj1vHHghv+7OGPealj+sxwVA3gwv2nc98D/bhvsY1/cNe2GmdR07w9EsG3DwFr8Q+OOhoZEfg4C9ugPn/Idsc+1owTA3N1fLKYL7RbxOhEq309uM92Rmwt03DYcOGca0rFmNRUK1yH9rTrb+Bc6smG+NSptmnzerpfGmsIeD+HTWXf58kszEwTbql8KdGuSGMxuPg+qAM4fhxOIeC6U//qtfxfTBkK/bDbK4xLnX2MTW//qIe1ilw0DL9BGIs7P1nF7uaAibPjBkr54n5+MbFN6wu6EJ5H477hsrygQvM96HlXXE/CIE6K1rAvH9cCK8Tx7E21MS0c2ADws5MVj6BL6In79wH+5j2agkprpX4TQJkEWbuPv0woNan+ipTE1poys7Ljb1obqiEieqeiLgWhWPHyyWGuj+9ExCmaYuanCwgK8Jr3LhxhrBiwuyf//mfZS6aL95xpzQdmcmIcuh+TQt65zloxA7WzalK1LyyCROO4hMKVQczC+XGAE7/vw7U9saCv/NjC64Joualm4QyGQKWCTC1DU3cD6tWO6Zv9iiEsTe4wsGlEIpKxJS7oS3YGoM0ccbXPQnjUdCZ4yA+9Hah3nUDjM3AfXLZlBnSdGRv8ugxEeNBHzMWa0NhYJ9DgLZ5MVFm25MPt8P3LLOWP9hKIOcQPl4n+4gJUrsdUXBNWZqO7EVjmPdR14Jv1zU3L+7QhDrWFW5ZEV6MmTNnwq233gp33HEHVFYGRQkOYNJM+BKg6fgOmozwZfiiFkCHCwkohZFqHQozX82rH5z64C+GIDr96tYIzeuPcPDhv8CwWf+maXthMFMXNa//4zMAH8QXmMDzQQ5e5mLAnguNZzf5aGUKptoLE2f+zajOc7PHT4tzOfIavmn1t3Ecbp4lTNNVL0N7pNYlxsScTz+4WaGPgQWhzJS+Ddj3G7yOi5nZ/cQMKLtrKT/fxXqbpUkWfR5BsJeUMK84bPA96Bs7SZ9mTbmmzASQeNEY5n3UtcBjl/Ix0eB7iH3Wo2ugPW9ucjSvrH6k2tPTAwUFBfD5z39erokP034aUSB8odk293rgwAOaGVfzEFTO+g20fDAbvinHqfhgOHzXyZtYxzswTWgNVHChyGY9NTNu1XehEr4Ph6/bBLPZ2BsbTP/X59D0czHbaR3vYH4Qy9tpCF5tO5tprDJtNG9fIHxQXUwv9+2jRDGI2vLlgONl+Tri40RxHB+H8XyMeQPM/zF7m7IZLvfDSU7AB4fsjRr2oSzfzsfULI0psH0yw1FtlVmG5wNR//PJFqJfZEah2uB3DdWHmkZ/efvTOVeffuDoxxv74Hn+eCy8/K3jMEeer7eNZl+Ia6B3osBz7/mdj0P0tfCrx72mVh/g+T0J34OXi54mlziXIuymZRe/b8IvDHGjgUeYZE6gcOMPCuRE4BDJImtmI5EcmHlgfo6QZ6AWwmcy0aTKtnglBg8kvC5BCtUYS47GzvoM06rkjNR47XMLgvCDzEaCIBIJaV4EQSQSCjpLEEQiIc2LIIhEQsKLIIhEQsKLIIhEQsKLIIhEQsKLIIhEcmkKr7e3w8bPVfuntW1yp2Rweks5fDDlKf6Db31ZIdZZaVkjnJfb+08bdGlldzTFchLUN9qe4nV05eoS9TRCh3YuH2xJ1r0QC70Pc92fOebSFF63LYRl6Sae7ts9AaB2Edwn88vqyuVOCaJiPAyRi8ay4v5dcN3BNjdtrIGhclP/KYciXm4zXFUhVyUR9iDPqocrdmj9NO2XGT7YQpDnvzCohMsdF0X6crIgszHhDCl13Q/py4OS8hVcqBRl/f2CQmfBLrisrtksG+vLfl0XmTHj3YdeX04g+dt2y7R79W25Hjmylq1bCb/qkisQsW679M3UBq/y7eyvfxnhiOOefblb5gU9L6+EjV9/Q/ygmbWPLRvtVPUruuFXX3frd4416IXXF5dASclWOCTXZMLQ6q2OJqUvx0KZSbp5JNeZ5t8pOLFMM6cy0i58tBFuroSbt0b9ljln1i3bZpt4vI4lcMLpcOscdNO57ZdwAeZBQXWEa0lpZjnJqVOZzvOwHIALC/z2YQS3gZ+/n5nK6jTaGtSGsH7Q+rqwBkoPboUx7Bfv+nISYV/Y5x2t29IbYEW6OSXzqab0TpiZbmiVeeS9NTPTG2qb0t243L17Be6/Lf2e2IQcTjfg/noZ3n0EfL0sR8e7XpTptIG30W1DOn0y3VyL+TWHec6bN9vs0pN+7Vvj0uPGbUn/Tq7JJqc235w+NtlKm902pbv3pNtxXYqvOpxO4XL73l6+SdCb/vAJ6xhfxH7msQxRpihfcng9tmN9+pTMntu7OH3siT3pczIfjE9ZDKs8Bj9vp83ec+DbZZ28fut4L1h3YL8pAtrHidEGnz4210e0wdMPQddkcJCXmteR/U0wfPe34Y4iuaJoJkxeA5Da775Vyup2Qjlsg6a126FpLmr4qYUe/07FreudMgrnfAOK4Rj0aNpaGIWVt8PwhrfgiNr/7VZIQTVMuE3mOdUw/b9nSrcto+GO5dUA78lAEF3vQmcDbtfG0MoeWmSWyRkFdz/dCZ2dS2CiXJN17DGvxzRbiL19d6DGsOAp6NqCf3HfUl0DafspfHJgHozQj8kFB5rhXF8dXJR/BYbALvirc3u0wV9frISrZss297TA36xzGDm7Hi7zrdPUjlwtrxyKjH6rhM9XAHyaijlBEdGGocWlAO3tXMM637TEXwuLaoPdD7xO3GdyLGfliSMPhVc39LwH8PHc+Zo5Vg37V8vNDigsNiwCWN0EoAu6UI7CRzGFlxCYR6GzRZiOQqDWRDvAa0hJ4ZWCj6EJ9mvnsLF4G67LQ8pXwAgUWhde9Aqp86kO/0mALMLM3dF1AJ/MUkLDNCmjKYcRdZVw4dfyqWVmYEUVDFPm0Il2+Awf6jPK1GJpVj2uE3DB4XANjNnIhLx3AsI0batQqMsNcYhoAx9/OtCOZucpONeMD2b7L3kfXOhogctKXb/o4W0w++H8b5vhs/sfSa5ZGEEeCq/RUHgToKDY6cwIOsmYCWyDV1EYFLSugwIUdJHjWV1dcBYmwNWxhJygbHo1fNz4LgqjNji6uhomzxktt/jT03EMoLZYaGJFxTCcaWb2OaRdbTBfYG/6M+31eON3wBnrMwr+YPOHKrfw8TqpGTJBarcjiqGTq+CyF8UDf/rXu2DIg9rYHx+YRsGsa588yfEevl3X3LzwPmLC3Tk2w9nVqDYUjocr2H5MWxr/CIyq6sD2nIK/twNcUSw0pzhtcPtBCEFH+xyE5KXZyIXG3P8yBuRN2ED4KkitWQf33lYO97ZWQ2qqOYBvc+Q51Hpqb4eyTATHbTXCNP36C3A2Uutqg1/PPQrDa26VwutWKKlFzSvyu7H+Ddj3m7anoHst3uTfqYGR1fVwFdRDt26ySFPkjK8ZE4excLlu2rDB9wW7xHIAfZo1RfO3AIXeX9uYyTgPrtSfWW5ehZwDHjuKaSwL9AF+E6YB6Rro+aZ6H81LnKujAepEtYEfiwLrlWa4Ylo5F0Kf/hrr1D5liNUG2Q9nl+E2FIKDVeti5K9LHDaLNxVNQo3i1iYUVkxwzYc2Np6Udse52Gzj/tUToDzFNBs2W4jCTW7joKDz+4aLzSC+1Hg73OeMXZnw7XxMzdKYAtsnMxzVVpllsG/KjLqY8JoES99YCXtyMO7FzIwzL8qMoqIeRrNZSTYTJT8RcMa5mHBh5gw+AO7YGJtNEzNpiiE75CcLsgwP+vHGPqg57B0PZ2e1Q8HBFTz6kreNTLsQ2xhM4+heyx5kE6PdDL/zcWBjWZaZpfpBZv3qcc7T7gM8vxHYzrOlVl2q/2TW6IeINoh+UOeu9tX7ImYbZD+4bR+cDFJ/XkJ4gUeYZE6gcOPCCwwBShB5ARdeYLwABiP5+51XPtD1hpjJ3OCvlRFE/oHaGde6BrfgYpDw8kN9eMonBPJvgJ0gPDgf8s6DT+1fCgxSyA00QRCJhDQvgiASCQkvgiASCQkvgiASCQkvgiASCQkvgiASCQkvgiASCQkvgiASCQkvX5QHVPPH3tyTaj8CdBieWAcK9lORKdIvlb5soHxYBf8wuf/IOjL0FmEQ2P4BQtav0kVrRyDKo6tIfQqGIj925cfqy3nIJS28ooTJ8Fpw/Hklm4iAC8wNC9TDVffj39/25UYVD83FfZhz3Ab2IC/ogKv2Snc03IFjLoV9X8heMBTlhoehL+cTpHmFUXM7FMxttPzSJww9yIK+rMGc1kFVJYyZNg8+a27pu2YUinTyl4mPfZucBeCI5vQrzNOG5mKm/AEUEC3wySt5p371D+VXjKEv5yF5KbyUecb/Ki+ktrnW9QY8q7ZhMoJlyN8m+q1jTgtVuS/NPQrQsA1ekmXYZiLArTBhTRMcDXJ0qH4DqZLHpDQDcPD6LETgEJXsAB6C3p8thJKSEtj6e7kiE/QgC/qyA3Na1yLerky4xXCN7JpMykwRblqCAk8Y3j9ts5GbYrYGI+tTZTi/2xPJ1K6i28Bc3Xi9s2aiqTEfYQBDpmlSk7vHxr/cdbPVXoV2bmFtUGaZ6SVVJt/+0rYH+gfzw+eceXl6u4T2Jl4Q+nIewn7bmG+IYBla8Ao7AIcnIIcIjrFz90mZR/QgHj4BPBhBwTdU8AxeHjtWtoPvr9pkBwmJEYDDrs8OyCHO2xskpOf1R9Pjxo1LbzkkV2QTHsRBBW3wC9jgDRzhJSzwhIt/oA2fOnmbFqc/9FyYsHoy2+bfliDY8W57nMAZesCLyCAgPu3zOcbFrFOA68ICcDgEBd7ItA35Tf6ajcxpn3IeyL2SApztEJpUT8tb8DH3osqzSDlM2z1BumyW3LYQ7tuNL5bl2+HV5dsAdu/sm28vVvd7L3i8tDKf9rDmG5rHCRmAY3Wr0J58AnCYMNfSEwx3OyJIiFfTG/W17dDZ2QlLbpErsojwc/4V6T7lGhiG5qNhOuY8AIe3zuz7Xi+HK+/XPZwKbfMyrDczE1ZoLsz5n2P+Ks+mUUFAPG1ATevXzHHiAz6ua5gmNw9gh60l9zMIyCAjkWNePcfQ/Fq9SjO3/E2ywjnfxsvdBClYBNUR/ueDGQ1lNfbAvQgSMvz6a2Vewv3WywhFXSwARwjcp/5RaCvWzUbL+2vOkQ+xFuDB9lk/MAE4HoEhjrkq2mSYaFmAR+qRPu5VJJ/IOI0GLfDJrGfg8r1tjtdS3jcOEUFAEKMNUrj5Rfbh7p3H7/I110zTMsMgIIOMRAqvwusnCLfOdnALy9vpkbXzoe2mdTD9pm3wUj8+cWAaUYGu1ckgIR8fOynzEi6wrofCOP6/ioqgAJjbauscMPXX+2ts+EMM8NnaKveB4O6aXQ1iYAJwMK1EznTKmc8R2Vb0pA95dl58gsJX4wlCaE1gaYM8so+mvYUGAWFobeDCzU+77GmE3uYqGO2j6cYJwHEpkUzhxWIqouYVFjGIDcrvXy3MtrK6dVCM+9sRsAtLrwfwxFH0oxwm3PQWHD0mswgLEgKrdXOyDV6dqoVHu22qYQKy9pjaIZa5BjWv5dHfffVrwD4Ebp4xH+rOwyDSCN28iRWAIyTwREyYVgKocZ2WM5+Zz0hGteEaGPPgPLjw/BLoXVuaodaF7ZuGZhwKDmewu+0pFCSW5hQWBIQj24Bt5MLNo12iWTqrGT7/Hf8Z2XhBQMLIPBhKPpNI4cViKj6cWgRnp+omlzu7qARFcavyLy8iDLFYkIYAu20hTGcCxDHdgiMQlT10O5xdrQkfNabmHLsKzu7eCQ875qmKaiS2cz/4mNcpq2sSWqFsv0j+M465wNYcFOJBVeYNm3HCBw0fRtdcsWfp8KH8DjOJtH0cYSfGidg6HtziQD1087w188a0EtS4zvgIFjFTx44xZxTNjyfD2iBhgvhAizbGlwHsMw3+bZcsm3/zZY9Jib67sIB5Mw3Q7FgbsI081Jwlu06zoL/cPJV18OTOxI58DK+D03/Ynx2P8BeNgzMTKcxJR6N2+kEIT2c9C4KyF/tMbk0a5EmVuIRggpQNhA/uqDqXCiS8iEsGHloMTWA3FBmRZEh4EYMc9tmBnJWz4jQKhDYWNiEx2OMfJhUSXgRBJJKkjtURBHGJQ8KLIIgEAvD/AfLpAK1Xl6kRAAAAAElFTkSuQmCC;" vertex="1" parent="1">
          <mxGeometry y="417" width="303" height="231" as="geometry" />
        </mxCell>
        <mxCell id="A4Z1KR2vAiBidAgtDhCJ-15" value="" style="endArrow=classic;html=1;rounded=0;entryX=1.162;entryY=0.95;entryDx=0;entryDy=0;entryPerimeter=0;" edge="1" parent="1" target="A4Z1KR2vAiBidAgtDhCJ-1">
          <mxGeometry width="50" height="50" relative="1" as="geometry">
            <mxPoint x="788" y="506" as="sourcePoint" />
            <mxPoint x="838" y="456" as="targetPoint" />
          </mxGeometry>
        </mxCell>
        <mxCell id="A4Z1KR2vAiBidAgtDhCJ-16" value="选择完成" style="edgeLabel;html=1;align=center;verticalAlign=middle;resizable=0;points=[];fontSize=17;" vertex="1" connectable="0" parent="A4Z1KR2vAiBidAgtDhCJ-15">
          <mxGeometry x="0.0432" y="4" relative="1" as="geometry">
            <mxPoint y="1" as="offset" />
          </mxGeometry>
        </mxCell>
      </root>
    </mxGraphModel>
  </diagram>
</mxfile>
